# Blender v2.65 (sub 0) OBJ File: ''
# www.blender.org
mtllib 1unit_radius_sphere.mtl
o 1unit_radius_sphere
v 0.640605 0.256431 -0.723787
v 0.690023 0.000000 -0.723787
v 0.000000 0.000000 -1.000000
v 0.000000 0.000000 -1.000000
v 0.499430 0.476132 -0.723787
v 0.723787 0.690023 0.000000
v 0.928382 0.371627 0.000000
v 0.853411 0.341616 -0.393686
v 0.665338 0.634300 -0.393686
v 1.000000 0.000000 -0.000000
v 0.919245 0.000000 -0.393686
v 0.523868 0.499430 0.690023
v 0.671951 0.268979 0.690023
v 0.861894 0.345011 0.371627
v 0.671951 0.640605 0.371627
v 0.723787 -0.000000 0.690023
v 0.928382 -0.000000 0.371627
v 0.000000 -0.000000 1.000000
v 0.365491 0.146304 0.919245
v 0.284945 0.271652 0.919245
v 0.000000 -0.000000 1.000000
v 0.393686 -0.000000 0.919245
v 0.271652 0.634300 -0.723787
v 0.000000 0.000000 -1.000000
v 0.000000 0.690023 -0.723787
v 0.000000 1.000000 0.000000
v 0.393686 0.919245 0.000000
v 0.361894 0.845012 -0.393686
v 0.000000 0.919245 -0.393686
v 0.000000 0.723787 0.690023
v 0.284945 0.665338 0.690023
v 0.365491 0.853411 0.371627
v 0.000000 0.928382 0.371627
v 0.000000 -0.000000 1.000000
v 0.154988 0.361894 0.919245
v 0.000000 0.393686 0.919245
v 0.000000 -0.000000 1.000000
v -0.256431 0.640605 -0.723787
v 0.000000 0.000000 -1.000000
v -0.476132 0.499430 -0.723787
v -0.690023 0.723787 0.000000
v -0.371627 0.928382 0.000000
v -0.341616 0.853411 -0.393686
v -0.634300 0.665338 -0.393686
v -0.640605 0.671951 0.371627
v -0.268979 0.671951 0.690023
v -0.499430 0.523868 0.690023
v 0.000000 -0.000000 1.000000
v -0.146304 0.365491 0.919245
v -0.271652 0.284945 0.919245
v 0.000000 -0.000000 1.000000
v -0.634300 0.271652 -0.723787
v 0.000000 0.000000 -1.000000
v -0.690023 0.000000 -0.723787
v -1.000000 0.000000 -0.000000
v -0.919245 0.393686 0.000000
v -0.845011 0.361894 -0.393686
v -0.919245 0.000000 -0.393686
v -0.723787 -0.000000 0.690023
v -0.665338 0.284945 0.690023
v -0.853411 0.365491 0.371627
v -0.928382 -0.000000 0.371627
v 0.000000 -0.000000 1.000000
v -0.361894 0.154988 0.919245
v -0.393686 -0.000000 0.919245
v 0.000000 -0.000000 1.000000
v -0.640605 -0.256431 -0.723787
v 0.000000 0.000000 -1.000000
v -0.499430 -0.476132 -0.723787
v -0.723787 -0.690023 -0.000000
v -0.928382 -0.371627 -0.000000
v -0.853411 -0.341616 -0.393686
v -0.665338 -0.634300 -0.393686
v -0.671951 -0.640605 0.371626
v -0.671951 -0.268979 0.690023
v -0.523868 -0.499430 0.690023
v 0.000000 -0.000000 1.000000
v -0.365491 -0.146304 0.919245
v -0.284945 -0.271652 0.919245
v 0.000000 -0.000000 1.000000
v -0.271652 -0.634300 -0.723788
v 0.000000 0.000000 -1.000000
v -0.000000 -0.690023 -0.723788
v -0.000000 -1.000000 -0.000000
v -0.393686 -0.919245 -0.000000
v -0.361894 -0.845011 -0.393686
v -0.000000 -0.919245 -0.393686
v -0.000000 -0.723788 0.690023
v -0.284945 -0.665338 0.690023
v -0.365491 -0.853411 0.371626
v -0.000000 -0.928382 0.371626
v 0.000000 -0.000000 1.000000
v -0.154988 -0.361894 0.919245
v -0.000000 -0.393686 0.919245
v 0.000000 -0.000000 1.000000
v 0.256431 -0.640605 -0.723788
v 0.000000 0.000000 -1.000000
v 0.476132 -0.499430 -0.723787
v 0.690023 -0.723787 -0.000000
v 0.371627 -0.928382 -0.000000
v 0.341616 -0.853411 -0.393686
v 0.634300 -0.665338 -0.393686
v 0.640605 -0.671952 0.371626
v 0.268979 -0.671952 0.690023
v 0.499430 -0.523868 0.690023
v 0.000000 -0.000000 1.000000
v 0.146304 -0.365491 0.919245
v 0.271652 -0.284945 0.919245
v 0.000000 -0.000000 1.000000
v 0.634300 -0.271652 -0.723787
v 0.000000 0.000000 -1.000000
v 0.690023 0.000000 -0.723787
v 1.000000 0.000000 -0.000000
v 0.919245 -0.393686 -0.000000
v 0.845011 -0.361894 -0.393686
v 0.919245 0.000000 -0.393686
v 0.723787 -0.000000 0.690023
v 0.665338 -0.284945 0.690023
v 0.853411 -0.365491 0.371626
v 0.928382 -0.000000 0.371627
v 0.000000 -0.000000 1.000000
v 0.361894 -0.154989 0.919245
v 0.393686 -0.000000 0.919245
v 0.000000 -0.000000 1.000000
vt 0.060600 0.242400
vt 0.000000 0.242400
vt 0.000000 0.000000
vt 0.121200 0.242400
vt 0.121200 0.000000
vt 0.121200 0.500000
vt 0.060600 0.500000
vt 0.060600 0.371200
vt 0.121200 0.371200
vt 0.000000 0.500000
vt 0.000000 0.371200
vt 0.121200 0.742400
vt 0.060600 0.742400
vt 0.060600 0.621200
vt 0.121200 0.621200
vt 0.000000 0.742400
vt 0.000000 0.621200
vt 0.121200 1.000000
vt 0.060600 0.871200
vt 0.121200 0.871200
vt 0.060600 1.000000
vt 0.000000 0.871200
vt 0.185600 0.242400
vt 0.250000 0.000000
vt 0.250000 0.242400
vt 0.250000 0.500000
vt 0.185600 0.500000
vt 0.185600 0.371200
vt 0.250000 0.371200
vt 0.250000 0.742400
vt 0.185600 0.742400
vt 0.185600 0.621200
vt 0.250000 0.621200
vt 0.250000 1.000000
vt 0.185600 0.871200
vt 0.250000 0.871200
vt 0.185600 1.000000
vt 0.310600 0.242400
vt 0.371200 0.000000
vt 0.371200 0.242400
vt 0.371200 0.500000
vt 0.310600 0.500000
vt 0.310600 0.371200
vt 0.371200 0.371200
vt 0.371200 0.621200
vt 0.310600 0.742400
vt 0.371200 0.742400
vt 0.371200 1.000000
vt 0.310600 0.871200
vt 0.371200 0.871200
vt 0.310600 1.000000
vt 0.435600 0.242400
vt 0.500000 0.000000
vt 0.500000 0.242400
vt 0.500000 0.500000
vt 0.435600 0.500000
vt 0.435600 0.371200
vt 0.500000 0.371200
vt 0.500000 0.742400
vt 0.435600 0.742400
vt 0.435600 0.621200
vt 0.500000 0.621200
vt 0.500000 1.000000
vt 0.435600 0.871200
vt 0.500000 0.871200
vt 0.435600 1.000000
vt 0.560600 0.242400
vt 0.621200 0.000000
vt 0.621200 0.242400
vt 0.621200 0.500000
vt 0.560600 0.500000
vt 0.560600 0.371200
vt 0.621200 0.371200
vt 0.621200 0.621200
vt 0.560600 0.742400
vt 0.621200 0.742400
vt 0.621200 1.000000
vt 0.560600 0.871200
vt 0.621200 0.871200
vt 0.560600 1.000000
vt 0.685600 0.242400
vt 0.750000 0.000000
vt 0.750000 0.242400
vt 0.750000 0.500000
vt 0.685600 0.500000
vt 0.685600 0.371200
vt 0.750000 0.371200
vt 0.750000 0.742400
vt 0.685600 0.742400
vt 0.685600 0.621200
vt 0.750000 0.621200
vt 0.750000 1.000000
vt 0.685600 0.871200
vt 0.750000 0.871200
vt 0.685600 1.000000
vt 0.810600 0.242400
vt 0.871200 0.000000
vt 0.871200 0.242400
vt 0.871200 0.500000
vt 0.810600 0.500000
vt 0.810600 0.371200
vt 0.871200 0.371200
vt 0.871200 0.621200
vt 0.810600 0.742400
vt 0.871200 0.742400
vt 0.871200 1.000000
vt 0.810600 0.871200
vt 0.871200 0.871200
vt 0.810600 1.000000
vt 0.935600 0.242400
vt 1.000000 0.000000
vt 1.000000 0.242400
vt 1.000000 0.500000
vt 0.935600 0.500000
vt 0.935600 0.371200
vt 1.000000 0.371200
vt 1.000000 0.742400
vt 0.935600 0.742400
vt 0.935600 0.621200
vt 1.000000 0.621200
vt 1.000000 1.000000
vt 0.935600 0.871200
vt 1.000000 0.871200
vt 0.935600 1.000000
vn 0.370677 0.071435 -0.926011
vn 0.317583 0.204072 -0.926011
vn 0.824722 0.529949 -0.197454
vn 0.962600 0.185507 -0.197454
vn 0.811286 0.156347 -0.563356
vn 0.695082 0.446645 -0.563356
vn 0.711493 0.457190 0.533624
vn 0.830441 0.160038 0.533624
vn 0.964810 0.185932 0.185933
vn 0.826615 0.531165 0.185933
vn 0.172031 0.110543 0.978870
vn 0.200791 0.038695 0.978870
vn 0.566956 0.109260 0.816470
vn 0.485748 0.312131 0.816470
vn 0.215752 0.310704 -0.925697
vn 0.076010 0.370552 -0.925697
vn 0.197004 0.960406 -0.197003
vn 0.559193 0.805291 -0.197003
vn 0.471603 0.679153 -0.562443
vn 0.166146 0.809971 -0.562443
vn 0.170055 0.829031 0.532718
vn 0.482700 0.695134 0.532718
vn 0.560470 0.807131 0.185507
vn 0.197454 0.962600 0.185507
vn 0.041183 0.200771 0.978772
vn 0.116898 0.168344 0.978772
vn 0.329846 0.475010 0.815823
vn 0.116205 0.566506 0.815823
vn -0.071435 0.370677 -0.926010
vn -0.204072 0.317583 -0.926011
vn -0.529949 0.824722 -0.197454
vn -0.185507 0.962600 -0.197454
vn -0.156346 0.811287 -0.563356
vn -0.446645 0.695082 -0.563356
vn -0.345012 0.861894 0.371627
vn -0.457190 0.711493 0.533624
vn -0.160038 0.830441 0.533624
vn -0.185932 0.964810 0.185933
vn -0.531166 0.826615 0.185933
vn -0.110543 0.172030 0.978870
vn -0.038695 0.200791 0.978870
vn -0.109260 0.566955 0.816470
vn -0.312131 0.485747 0.816470
vn -0.310704 0.215752 -0.925697
vn -0.370551 0.076010 -0.925697
vn -0.960406 0.197004 -0.197004
vn -0.805291 0.559193 -0.197003
vn -0.679153 0.471603 -0.562443
vn -0.809971 0.166146 -0.562443
vn -0.829031 0.170055 0.532718
vn -0.695135 0.482700 0.532718
vn -0.807131 0.560470 0.185507
vn -0.962600 0.197454 0.185507
vn -0.200771 0.041183 0.978772
vn -0.168345 0.116898 0.978772
vn -0.475010 0.329846 0.815823
vn -0.566506 0.116205 0.815823
vn -0.370677 -0.071435 -0.926011
vn -0.317583 -0.204072 -0.926011
vn -0.824722 -0.529949 -0.197454
vn -0.962600 -0.185507 -0.197454
vn -0.811286 -0.156346 -0.563356
vn -0.695082 -0.446645 -0.563356
vn -0.861894 -0.345012 0.371626
vn -0.711493 -0.457190 0.533624
vn -0.830441 -0.160038 0.533624
vn -0.964810 -0.185932 0.185932
vn -0.826615 -0.531166 0.185932
vn -0.172030 -0.110544 0.978870
vn -0.200791 -0.038695 0.978870
vn -0.566956 -0.109260 0.816470
vn -0.485747 -0.312131 0.816470
vn -0.215752 -0.310704 -0.925697
vn -0.076009 -0.370551 -0.925697
vn -0.197004 -0.960406 -0.197004
vn -0.559193 -0.805291 -0.197004
vn -0.471603 -0.679153 -0.562443
vn -0.166146 -0.809971 -0.562443
vn -0.170055 -0.829031 0.532718
vn -0.482700 -0.695135 0.532718
vn -0.560470 -0.807131 0.185507
vn -0.197454 -0.962600 0.185507
vn -0.041183 -0.200771 0.978772
vn -0.116898 -0.168345 0.978772
vn -0.329846 -0.475010 0.815823
vn -0.116205 -0.566506 0.815823
vn 0.071435 -0.370677 -0.926011
vn 0.204072 -0.317583 -0.926011
vn 0.529949 -0.824722 -0.197454
vn 0.185507 -0.962600 -0.197454
vn 0.156346 -0.811286 -0.563356
vn 0.446645 -0.695081 -0.563356
vn 0.345012 -0.861894 0.371626
vn 0.457190 -0.711493 0.533624
vn 0.160038 -0.830441 0.533624
vn 0.185932 -0.964810 0.185932
vn 0.531166 -0.826615 0.185932
vn 0.110543 -0.172031 0.978869
vn 0.038695 -0.200791 0.978869
vn 0.109260 -0.566956 0.816470
vn 0.312131 -0.485748 0.816470
vn 0.310704 -0.215752 -0.925697
vn 0.370551 -0.076009 -0.925697
vn 0.960406 -0.197004 -0.197004
vn 0.805291 -0.559193 -0.197004
vn 0.679153 -0.471603 -0.562443
vn 0.809971 -0.166146 -0.562443
vn 0.829031 -0.170055 0.532718
vn 0.695135 -0.482700 0.532718
vn 0.807131 -0.560470 0.185507
vn 0.962600 -0.197454 0.185507
vn 0.200771 -0.041183 0.978772
vn 0.168344 -0.116898 0.978772
vn 0.475010 -0.329846 0.815823
vn 0.566506 -0.116205 0.815823
usemtl None
s off
f 1/1/1 2/2/1 3/3/1
f 5/4/2 1/1/2 4/5/2
f 6/6/3 7/7/3 8/8/3
f 6/6/3 8/8/3 9/9/3
f 7/7/4 10/10/4 11/11/4
f 7/7/4 11/11/4 8/8/4
f 2/2/5 1/1/5 8/8/5
f 2/2/5 8/8/5 11/11/5
f 1/1/6 5/4/6 9/9/6
f 1/1/6 9/9/6 8/8/6
f 12/12/7 13/13/7 14/14/7
f 12/12/7 14/14/7 15/15/7
f 13/13/8 16/16/8 17/17/8
f 13/13/8 17/17/8 14/14/8
f 14/14/9 17/17/9 10/10/9
f 14/14/9 10/10/9 7/7/9
f 15/15/10 14/14/10 7/7/10
f 15/15/10 7/7/10 6/6/10
f 18/18/11 19/19/11 20/20/11
f 21/21/12 22/22/12 19/19/12
f 19/19/13 22/22/13 16/16/13
f 19/19/13 16/16/13 13/13/13
f 20/20/14 19/19/14 13/13/14
f 20/20/14 13/13/14 12/12/14
f 23/23/15 5/4/15 4/5/15
f 24/24/16 25/25/16 23/23/16
f 26/26/17 27/27/17 28/28/17
f 26/26/17 28/28/17 29/29/17
f 27/27/18 6/6/18 9/9/18
f 27/27/18 9/9/18 28/28/18
f 28/28/19 9/9/19 5/4/19
f 28/28/19 5/4/19 23/23/19
f 29/29/20 28/28/20 23/23/20
f 29/29/20 23/23/20 25/25/20
f 30/30/21 31/31/21 32/32/21
f 30/30/21 32/32/21 33/33/21
f 31/31/22 12/12/22 15/15/22
f 31/31/22 15/15/22 32/32/22
f 32/32/23 15/15/23 6/6/23
f 32/32/23 6/6/23 27/27/23
f 33/33/24 32/32/24 27/27/24
f 33/33/24 27/27/24 26/26/24
f 34/34/25 35/35/25 36/36/25
f 37/37/26 20/20/26 35/35/26
f 35/35/27 20/20/27 12/12/27
f 35/35/27 12/12/27 31/31/27
f 36/36/28 35/35/28 31/31/28
f 36/36/28 31/31/28 30/30/28
f 38/38/29 25/25/29 24/24/29
f 39/39/30 40/40/30 38/38/30
f 41/41/31 42/42/31 43/43/31
f 41/41/31 43/43/31 44/44/31
f 42/42/32 26/26/32 29/29/32
f 42/42/32 29/29/32 43/43/32
f 43/43/33 29/29/33 25/25/33
f 43/43/33 25/25/33 38/38/33
f 44/44/34 43/43/34 38/38/34
f 44/44/34 38/38/34 40/40/34
f 45/45/35 46/46/35 33/33/35
f 45/45/35 33/33/35 42/42/35
f 45/45/36 47/47/36 46/46/36
f 46/46/37 30/30/37 33/33/37
f 33/33/38 26/26/38 42/42/38
f 42/42/39 41/41/39 45/45/39
f 48/48/40 49/49/40 50/50/40
f 51/51/41 36/36/41 49/49/41
f 49/49/42 36/36/42 30/30/42
f 49/49/42 30/30/42 46/46/42
f 50/50/43 49/49/43 46/46/43
f 50/50/43 46/46/43 47/47/43
f 52/52/44 40/40/44 39/39/44
f 53/53/45 54/54/45 52/52/45
f 55/55/46 56/56/46 57/57/46
f 55/55/46 57/57/46 58/58/46
f 56/56/47 41/41/47 44/44/47
f 56/56/47 44/44/47 57/57/47
f 57/57/48 44/44/48 40/40/48
f 57/57/48 40/40/48 52/52/48
f 58/58/49 57/57/49 52/52/49
f 58/58/49 52/52/49 54/54/49
f 59/59/50 60/60/50 61/61/50
f 59/59/50 61/61/50 62/62/50
f 60/60/51 47/47/51 45/45/51
f 60/60/51 45/45/51 61/61/51
f 61/61/52 45/45/52 41/41/52
f 61/61/52 41/41/52 56/56/52
f 62/62/53 61/61/53 56/56/53
f 62/62/53 56/56/53 55/55/53
f 63/63/54 64/64/54 65/65/54
f 66/66/55 50/50/55 64/64/55
f 64/64/56 50/50/56 47/47/56
f 64/64/56 47/47/56 60/60/56
f 65/65/57 64/64/57 60/60/57
f 65/65/57 60/60/57 59/59/57
f 67/67/58 54/54/58 53/53/58
f 68/68/59 69/69/59 67/67/59
f 70/70/60 71/71/60 72/72/60
f 70/70/60 72/72/60 73/73/60
f 71/71/61 55/55/61 58/58/61
f 71/71/61 58/58/61 72/72/61
f 72/72/62 58/58/62 54/54/62
f 72/72/62 54/54/62 67/67/62
f 73/73/63 72/72/63 67/67/63
f 73/73/63 67/67/63 69/69/63
f 74/74/64 75/75/64 62/62/64
f 74/74/64 62/62/64 71/71/64
f 74/74/65 76/76/65 75/75/65
f 75/75/66 59/59/66 62/62/66
f 62/62/67 55/55/67 71/71/67
f 71/71/68 70/70/68 74/74/68
f 77/77/69 78/78/69 79/79/69
f 80/80/70 65/65/70 78/78/70
f 78/78/71 65/65/71 59/59/71
f 78/78/71 59/59/71 75/75/71
f 79/79/72 78/78/72 75/75/72
f 79/79/72 75/75/72 76/76/72
f 81/81/73 69/69/73 68/68/73
f 82/82/74 83/83/74 81/81/74
f 84/84/75 85/85/75 86/86/75
f 84/84/75 86/86/75 87/87/75
f 85/85/76 70/70/76 73/73/76
f 85/85/76 73/73/76 86/86/76
f 86/86/77 73/73/77 69/69/77
f 86/86/77 69/69/77 81/81/77
f 87/87/78 86/86/78 81/81/78
f 87/87/78 81/81/78 83/83/78
f 88/88/79 89/89/79 90/90/79
f 88/88/79 90/90/79 91/91/79
f 89/89/80 76/76/80 74/74/80
f 89/89/80 74/74/80 90/90/80
f 90/90/81 74/74/81 70/70/81
f 90/90/81 70/70/81 85/85/81
f 91/91/82 90/90/82 85/85/82
f 91/91/82 85/85/82 84/84/82
f 92/92/83 93/93/83 94/94/83
f 95/95/84 79/79/84 93/93/84
f 93/93/85 79/79/85 76/76/85
f 93/93/85 76/76/85 89/89/85
f 94/94/86 93/93/86 89/89/86
f 94/94/86 89/89/86 88/88/86
f 96/96/87 83/83/87 82/82/87
f 97/97/88 98/98/88 96/96/88
f 99/99/89 100/100/89 101/101/89
f 99/99/89 101/101/89 102/102/89
f 100/100/90 84/84/90 87/87/90
f 100/100/90 87/87/90 101/101/90
f 101/101/91 87/87/91 83/83/91
f 101/101/91 83/83/91 96/96/91
f 102/102/92 101/101/92 96/96/92
f 102/102/92 96/96/92 98/98/92
f 103/103/93 104/104/93 91/91/93
f 103/103/93 91/91/93 100/100/93
f 103/103/94 105/105/94 104/104/94
f 104/104/95 88/88/95 91/91/95
f 91/91/96 84/84/96 100/100/96
f 100/100/97 99/99/97 103/103/97
f 106/106/98 107/107/98 108/108/98
f 109/109/99 94/94/99 107/107/99
f 107/107/100 94/94/100 88/88/100
f 107/107/100 88/88/100 104/104/100
f 108/108/101 107/107/101 104/104/101
f 108/108/101 104/104/101 105/105/101
f 110/110/102 98/98/102 97/97/102
f 111/111/103 112/112/103 110/110/103
f 113/113/104 114/114/104 115/115/104
f 113/113/104 115/115/104 116/116/104
f 114/114/105 99/99/105 102/102/105
f 114/114/105 102/102/105 115/115/105
f 115/115/106 102/102/106 98/98/106
f 115/115/106 98/98/106 110/110/106
f 116/116/107 115/115/107 110/110/107
f 116/116/107 110/110/107 112/112/107
f 117/117/108 118/118/108 119/119/108
f 117/117/108 119/119/108 120/120/108
f 118/118/109 105/105/109 103/103/109
f 118/118/109 103/103/109 119/119/109
f 119/119/110 103/103/110 99/99/110
f 119/119/110 99/99/110 114/114/110
f 120/120/111 119/119/111 114/114/111
f 120/120/111 114/114/111 113/113/111
f 121/121/112 122/122/112 123/123/112
f 124/124/113 108/108/113 122/122/113
f 122/122/114 108/108/114 105/105/114
f 122/122/114 105/105/114 118/118/114
f 123/123/115 122/122/115 118/118/115
f 123/123/115 118/118/115 117/117/115
