# Blender v2.65 (sub 0) OBJ File: ''
# www.blender.org
mtllib building.mtl
o building
v 7.990752 -0.000019 7.990752
v 8.071466 -0.000019 7.990752
v 7.990752 16.378080 7.990790
v 8.071466 16.378080 7.990790
v 8.071466 0.000019 -8.071466
v 7.990752 0.000019 -8.071466
v 8.071466 16.378119 -8.071428
v 7.990752 16.378119 -8.071428
v 7.990752 16.378080 7.990790
v 8.071466 16.378080 7.990790
v 8.071466 16.378119 -8.071428
v 7.990752 16.378119 -8.071428
v 8.071466 7.697702 1.614311
v 8.071466 -0.000004 1.614293
v 7.990752 -0.000004 1.614293
v 7.990752 7.697702 1.614311
v 8.071466 7.697710 -1.614275
v 8.071466 7.697702 1.614311
v 7.990752 7.697702 1.614311
v 7.990752 7.697710 -1.614275
v 8.071466 0.000004 -1.614293
v 8.071466 7.697710 -1.614275
v 7.990752 7.697710 -1.614275
v 7.990752 0.000004 -1.614293
v 8.071466 -0.000019 7.990752
v 8.071466 -0.000004 1.614293
v 8.071466 7.697702 1.614311
v 8.071466 16.378119 -8.071428
v 8.071466 16.378080 7.990790
v 8.071466 7.697710 -1.614275
v 8.071466 0.000019 -8.071466
v 8.071466 0.000004 -1.614293
v 7.990752 0.000019 -8.071466
v 7.990752 0.000004 -1.614293
v 7.990752 7.697710 -1.614275
v 7.990752 16.378080 7.990790
v 7.990752 16.378119 -8.071428
v 7.990752 -0.000019 7.990752
v 7.990752 7.697702 1.614311
v 7.990752 -0.000004 1.614293
v 8.071466 -0.000019 7.990752
v 7.990752 -0.000019 7.990752
v 7.990752 -0.000004 1.614293
v 8.071466 -0.000004 1.614293
v 7.990752 0.000019 -8.071466
v 8.071466 0.000019 -8.071466
v 7.990752 0.000004 -1.614293
v 8.071466 0.000004 -1.614293
v -8.071466 16.541861 8.071505
v -8.071466 16.541899 -8.071428
v -8.071466 16.378119 -8.071428
v -8.071466 16.378080 8.071505
v -8.071466 16.541899 -8.071428
v 8.071466 16.541899 -8.071428
v 8.071466 16.378119 -8.071428
v -8.071466 16.378119 -8.071428
v 8.071466 16.541899 -8.071428
v 8.071466 16.541861 8.071505
v 8.071466 16.378080 8.071505
v 8.071466 16.378119 -8.071428
v 8.071466 16.541861 8.071505
v -8.071466 16.541861 8.071505
v -8.071466 16.378080 8.071505
v 8.071466 16.378080 8.071505
v -8.071466 16.541899 -8.071428
v -8.071466 16.541861 8.071505
v 8.071466 16.541861 8.071505
v 8.071466 16.541899 -8.071428
v -8.071466 16.378080 8.071505
v -8.071466 16.378119 -8.071428
v 8.071466 16.378119 -8.071428
v 8.071466 16.378080 8.071505
v -8.071466 0.000019 -8.071466
v -8.071466 0.000019 -7.990752
v -8.071466 16.378119 -8.071428
v -8.071466 16.378119 -7.990714
v -8.071466 0.000019 -7.990752
v 7.990752 0.000019 -7.990752
v -8.071466 16.378119 -7.990714
v 7.990752 16.378119 -7.990714
v 7.990752 0.000019 -7.990752
v 7.990752 0.000019 -8.071466
v 7.990752 16.378119 -7.990714
v 7.990752 16.378119 -8.071428
v 7.990752 0.000019 -8.071466
v -8.071466 0.000019 -8.071466
v 7.990752 16.378119 -8.071428
v -8.071466 16.378119 -8.071428
v -8.071466 0.000019 -7.990752
v -8.071466 0.000019 -8.071466
v 7.990752 0.000019 -8.071466
v 7.990752 0.000019 -7.990752
v -8.071466 16.378119 -8.071428
v -8.071466 16.378119 -7.990714
v 7.990752 16.378119 -7.990714
v 7.990752 16.378119 -8.071428
v -7.990752 -0.000019 7.990752
v -7.990752 -0.000019 8.071466
v -7.990752 16.378080 7.990790
v -7.990752 16.378080 8.071505
v -7.990752 -0.000019 8.071466
v 8.071466 -0.000019 8.071466
v -7.990752 16.378080 8.071505
v 8.071466 16.378080 8.071505
v 8.071466 -0.000019 8.071466
v 8.071466 -0.000019 7.990752
v 8.071466 16.378080 8.071505
v 8.071466 16.378080 7.990790
v 8.071466 -0.000019 7.990752
v -7.990752 -0.000019 7.990752
v 8.071466 16.378080 7.990790
v -7.990752 16.378080 7.990790
v -7.990752 -0.000019 8.071466
v -7.990752 -0.000019 7.990752
v 8.071466 -0.000019 7.990752
v 8.071466 -0.000019 8.071466
v -7.990752 16.378080 7.990790
v -7.990752 16.378080 8.071505
v 8.071466 16.378080 8.071505
v 8.071466 16.378080 7.990790
v -8.071466 -0.000019 8.071466
v -7.990752 -0.000019 8.071466
v -8.071466 16.378080 8.071505
v -7.990752 16.378080 8.071505
v -7.990752 -0.000019 8.071466
v -7.990752 0.000019 -7.990752
v -7.990752 16.378080 8.071505
v -7.990752 16.378119 -7.990714
v -7.990752 0.000019 -7.990752
v -8.071466 0.000019 -7.990752
v -7.990752 16.378119 -7.990714
v -8.071466 16.378119 -7.990714
v -8.071466 0.000019 -7.990752
v -8.071466 -0.000019 8.071466
v -8.071466 16.378119 -7.990714
v -8.071466 16.378080 8.071505
v -7.990752 -0.000019 8.071466
v -8.071466 -0.000019 8.071466
v -8.071466 0.000019 -7.990752
v -7.990752 0.000019 -7.990752
v -8.071466 16.378080 8.071505
v -7.990752 16.378080 8.071505
v -7.990752 16.378119 -7.990714
v -8.071466 16.378119 -7.990714
vt 0.028986 0.000000
vt 0.033816 0.000000
vt 0.028986 0.483092
vt 0.033816 0.483092
vt 0.024155 0.000000
vt 0.024155 0.483092
vt 0.038647 0.000000
vt 0.038647 0.961353
vt 0.033816 0.961353
vt 0.012649 0.227053
vt 0.012649 0.009267
vt 0.012667 0.009267
vt 0.012667 0.227053
vt 0.002987 0.193237
vt 0.002987 0.000000
vt 0.003005 0.000000
vt 0.003005 0.193237
vt 0.007818 0.217786
vt 0.007818 0.000000
vt 0.007836 0.000000
vt 0.007836 0.217786
vt 0.038647 0.500000
vt 0.419708 0.500000
vt 0.419708 0.726707
vt 0.998535 0.982356
vt 0.038647 0.982356
vt 0.612651 0.726707
vt 0.998535 0.500000
vt 0.612651 0.500000
vt 0.424532 0.000000
vt 0.424532 0.226707
vt 0.998535 0.482356
vt 0.038647 0.482356
vt 0.998535 0.000000
vt 0.617474 0.226707
vt 0.617474 0.000000
vt 0.014493 0.000000
vt 0.019324 0.000000
vt 0.019324 0.151506
vt 0.014493 0.151506
vt 0.024155 0.386473
vt 0.019324 0.386473
vt 0.024155 0.231107
vt 0.019324 0.231107
vt 0.009804 0.000000
vt 0.009804 0.980392
vt 0.004902 0.980392
vt 0.004902 0.000000
vt 0.000000 0.980392
vt 0.000000 0.000000
vt 0.019608 0.000000
vt 0.019608 0.980392
vt 0.014706 0.980392
vt 0.014706 0.000000
vt 0.019608 0.998535
vt 0.019608 0.500000
vt 0.518143 0.500000
vt 0.518143 0.998535
vt 0.518143 0.000000
vt 0.518143 0.498535
vt 0.019608 0.498535
vt 0.004926 0.000000
vt 0.009852 0.000000
vt 0.004926 0.492611
vt 0.009852 0.492611
vt 0.019704 0.500000
vt 0.019704 0.991875
vt 0.998535 0.991875
vt 0.000000 0.492611
vt 0.019704 0.000000
vt 0.019704 0.491875
vt 0.998535 0.491875
vt 0.014778 0.000000
vt 0.019704 0.980296
vt 0.014778 0.980296
vt 0.009852 0.980296
vn 0.000000 -0.000002 1.000000
vn 0.000000 0.000002 -1.000000
vn 0.000000 1.000000 0.000002
vn 0.000000 -1.000000 -0.000002
vn 1.000000 0.000000 0.000000
vn -1.000000 0.000000 -0.000000
vn 0.000000 0.000000 -1.000000
vn 0.000000 0.000000 1.000000
vn 0.000000 1.000000 0.000000
usemtl None
s off
f 1/1/1 2/2/1 3/3/1
f 4/4/1 3/3/1 2/2/1
f 5/5/2 6/1/2 7/6/2
f 8/3/2 7/6/2 6/1/2
f 9/2/3 10/7/3 11/8/3
f 11/8/3 12/9/3 9/2/3
f 13/10/2 14/11/2 15/12/2
f 15/12/2 16/13/2 13/10/2
f 17/14/4 18/15/4 19/16/4
f 19/16/4 20/17/4 17/14/4
f 21/18/1 22/19/1 23/20/1
f 23/20/1 24/21/1 21/18/1
f 25/22/5 26/23/5 27/24/5
f 28/25/5 29/26/5 30/27/5
f 29/26/5 25/22/5 27/24/5
f 31/28/5 28/25/5 30/27/5
f 27/24/5 30/27/5 29/26/5
f 30/27/5 32/29/5 31/28/5
f 33/7/6 34/30/6 35/31/6
f 36/32/6 37/33/6 35/31/6
f 38/34/6 36/32/6 39/35/6
f 37/33/6 33/7/6 35/31/6
f 39/35/6 40/36/6 38/34/6
f 35/31/6 39/35/6 36/32/6
f 41/37/4 42/38/4 43/39/4
f 44/40/4 41/37/4 43/39/4
f 45/41/4 46/42/4 47/43/4
f 48/44/4 47/43/4 46/42/4
f 49/45/6 50/46/6 51/47/6
f 51/47/6 52/48/6 49/45/6
f 53/48/7 54/47/7 55/49/7
f 55/49/7 56/50/7 53/48/7
f 57/51/5 58/52/5 59/53/5
f 59/53/5 60/54/5 57/51/5
f 61/54/8 62/53/8 63/46/8
f 63/46/8 64/45/8 61/54/8
f 65/55/3 66/56/3 67/57/3
f 68/58/3 65/55/3 67/57/3
f 69/51/4 70/59/4 71/60/4
f 71/60/4 72/61/4 69/51/4
f 73/62/6 74/63/6 75/64/6
f 76/65/6 75/64/6 74/63/6
f 77/66/1 78/28/1 79/67/1
f 80/68/1 79/67/1 78/28/1
f 81/50/5 82/62/5 83/69/5
f 84/64/5 83/69/5 82/62/5
f 85/70/2 86/34/2 87/71/2
f 88/72/2 87/71/2 86/34/2
f 89/73/4 90/70/4 91/74/4
f 92/75/4 89/73/4 91/74/4
f 93/63/9 94/73/9 95/75/9
f 95/75/9 96/76/9 93/63/9
f 97/62/6 98/63/6 99/64/6
f 100/65/6 99/64/6 98/63/6
f 101/66/1 102/28/1 103/67/1
f 104/68/1 103/67/1 102/28/1
f 105/50/5 106/62/5 107/69/5
f 108/64/5 107/69/5 106/62/5
f 109/70/2 110/34/2 111/71/2
f 112/72/2 111/71/2 110/34/2
f 113/73/4 114/70/4 115/74/4
f 116/75/4 113/73/4 115/74/4
f 117/63/9 118/73/9 119/75/9
f 119/75/9 120/76/9 117/63/9
f 121/62/1 122/63/1 123/64/1
f 124/65/1 123/64/1 122/63/1
f 125/66/5 126/28/5 127/67/5
f 128/68/5 127/67/5 126/28/5
f 129/50/2 130/62/2 131/69/2
f 132/64/2 131/69/2 130/62/2
f 133/70/6 134/34/6 135/71/6
f 136/72/6 135/71/6 134/34/6
f 137/73/4 138/70/4 139/74/4
f 140/75/4 137/73/4 139/74/4
f 141/63/3 142/73/3 143/75/3
f 143/75/3 144/76/3 141/63/3
