# Blender v2.65 (sub 0) OBJ File: ''
# www.blender.org
mtllib cubeface4.mtl
o cube.002
v 6.000000 -0.000001 6.000000
v 6.000000 5.999999 6.000001
v 0.000000 5.999999 6.000001
v 0.000000 -0.000001 6.000000
v 0.000000 0.000000 0.000000
v 0.000000 6.000000 0.000001
v 6.000000 6.000000 0.000001
v 6.000000 0.000000 0.000000
v 6.000000 5.999999 6.000001
v 6.000000 6.000000 0.000001
v 0.000000 6.000000 0.000001
v 0.000000 5.999999 6.000001
v 0.000000 -0.000001 6.000000
v 0.000000 5.999999 6.000001
v 0.000000 6.000000 0.000001
v 0.000000 0.000000 0.000000
v 6.000000 5.999999 6.000001
v 6.000000 -0.000001 6.000000
v 6.000000 0.000000 0.000000
v 6.000000 6.000000 0.000001
vt 1.000000 1.000000
vt 0.000000 1.000000
vt 0.000000 0.000000
vt 1.000000 0.000000
vn 0.000000 -0.000000 1.000000
vn 0.000000 0.000000 -1.000000
vn 0.000000 1.000000 0.000000
vn -1.000000 0.000000 0.000000
vn 1.000000 0.000000 -0.000000
usemtl None
s off
f 1/1/1 2/2/1 3/3/1
f 1/1/1 3/3/1 4/4/1
f 5/1/2 6/2/2 7/3/2
f 5/1/2 7/3/2 8/4/2
f 9/1/3 10/2/3 11/3/3
f 9/1/3 11/3/3 12/4/3
f 13/1/4 14/2/4 15/3/4
f 13/1/4 15/3/4 16/4/4
f 17/1/5 18/2/5 19/3/5
f 17/1/5 19/3/5 20/4/5
