# Blender v2.65 (sub 0) OBJ File: ''
# www.blender.org
mtllib handgun.mtl
o handgun
v 0.120027 0.298714 1.835428
v 0.275073 0.334237 1.835428
v 0.275076 0.334237 -0.100317
v 0.412272 0.263689 1.835428
v 0.412275 0.263689 -0.100316
v 0.376673 0.120561 1.835428
v 0.376676 0.120561 -0.100317
v 0.221627 0.085038 1.835428
v 0.221630 0.085038 -0.100317
v 0.084428 0.155586 1.835428
v 0.084431 0.155586 -0.100317
v 0.120027 0.298714 1.835428
v 0.120030 0.298714 -0.100317
v 0.120030 0.298714 -0.100317
v 0.120027 0.298714 1.835428
v 0.084428 0.155586 1.835428
v 0.275073 0.334237 1.835428
v 0.221627 0.085038 1.835428
v 0.376673 0.120561 1.835428
v 0.412272 0.263689 1.835428
v 0.120030 0.298714 -0.100317
v 0.275076 0.334237 -0.100317
v 0.084431 0.155586 -0.100317
v 0.412275 0.263689 -0.100316
v 0.221630 0.085038 -0.100317
v 0.376676 0.120561 -0.100317
v -0.136619 0.298714 1.835427
v -0.101167 0.155371 1.835428
v -0.101164 0.155371 -0.100317
v -0.236516 0.085219 1.835427
v -0.236513 0.085219 -0.100317
v -0.393265 0.120561 1.835427
v -0.393262 0.120561 -0.100318
v -0.428716 0.263904 1.835427
v -0.428713 0.263904 -0.100318
v -0.293367 0.334055 1.835427
v -0.293365 0.334055 -0.100318
v -0.136619 0.298714 1.835427
v -0.136616 0.298714 -0.100317
v -0.136616 0.298714 -0.100317
v -0.136619 0.298714 1.835427
v -0.293367 0.334055 1.835427
v -0.101167 0.155371 1.835428
v -0.428716 0.263904 1.835427
v -0.393265 0.120561 1.835427
v -0.236516 0.085219 1.835427
v -0.136616 0.298714 -0.100317
v -0.101164 0.155371 -0.100317
v -0.293365 0.334055 -0.100318
v -0.236513 0.085219 -0.100317
v -0.393262 0.120561 -0.100318
v -0.428713 0.263904 -0.100318
v -0.136619 0.476867 1.835427
v -0.291665 0.441343 1.835427
v -0.291662 0.441343 -0.100318
v -0.428864 0.511892 1.835427
v -0.428861 0.511892 -0.100318
v -0.393265 0.655019 1.835427
v -0.393262 0.655019 -0.100318
v -0.238218 0.690543 1.835427
v -0.238216 0.690543 -0.100317
v -0.101020 0.619994 1.835428
v -0.101017 0.619994 -0.100317
v -0.136619 0.476867 1.835427
v -0.136616 0.476867 -0.100317
v -0.136616 0.476867 -0.100317
v -0.136619 0.476867 1.835427
v -0.101020 0.619994 1.835428
v -0.393265 0.655019 1.835427
v -0.238218 0.690543 1.835427
v -0.428864 0.511892 1.835427
v -0.291665 0.441343 1.835427
v -0.136616 0.476867 -0.100317
v -0.291662 0.441343 -0.100318
v -0.101017 0.619994 -0.100317
v -0.428861 0.511892 -0.100318
v -0.393262 0.655019 -0.100318
v -0.238216 0.690543 -0.100317
v -0.008296 0.513763 1.835428
v -0.123672 0.542500 1.835427
v -0.123669 0.542500 -0.100317
v -0.189772 0.639736 1.835427
v -0.189769 0.639736 -0.100317
v -0.125001 0.736206 1.835427
v -0.124998 0.736206 -0.100317
v -0.008296 0.765709 1.835428
v -0.008293 0.765709 -0.100317
v 0.107080 0.736973 1.835428
v 0.107083 0.736973 -0.100317
v 0.173180 0.639736 1.835428
v 0.173183 0.639736 -0.100317
v 0.108409 0.543267 1.835428
v 0.108412 0.543267 -0.100317
v -0.008296 0.513763 1.835428
v -0.008293 0.513763 -0.100317
v -0.008293 0.513763 -0.100317
v -0.008296 0.513763 1.835428
v 0.108409 0.543267 1.835428
v 0.173180 0.639736 1.835428
v 0.107080 0.736973 1.835428
v -0.008296 0.765709 1.835428
v -0.125001 0.736206 1.835427
v -0.189772 0.639736 1.835427
v -0.123672 0.542500 1.835427
v -0.008293 0.513763 -0.100317
v -0.123669 0.542500 -0.100317
v -0.189769 0.639736 -0.100317
v -0.124998 0.736206 -0.100317
v -0.008293 0.765709 -0.100317
v 0.107083 0.736973 -0.100317
v 0.173183 0.639736 -0.100317
v 0.108412 0.543267 -0.100317
v -0.008296 0.261817 1.835428
v 0.162789 0.177859 1.835428
v 0.162792 0.177859 -0.100317
v 0.079210 0.025483 1.835428
v 0.079213 0.025483 -0.100317
v -0.101665 0.027823 1.835428
v -0.101662 0.027823 -0.100317
v -0.179266 0.178084 1.835427
v -0.179263 0.178084 -0.100317
v -0.008296 0.261817 1.835428
v -0.008293 0.261817 -0.100317
v -0.008293 0.261817 -0.100317
v -0.008296 0.261817 1.835428
v -0.179266 0.178084 1.835427
v 0.162789 0.177859 1.835428
v -0.101665 0.027823 1.835428
v 0.079210 0.025483 1.835428
v -0.008293 0.261817 -0.100317
v 0.162792 0.177859 -0.100317
v 0.079213 0.025483 -0.100317
v -0.101662 0.027823 -0.100317
v -0.179263 0.178084 -0.100317
v -0.189772 0.387790 1.835427
v -0.329738 0.265157 1.835427
v -0.329735 0.265157 -0.100318
v -0.504550 0.302310 1.835427
v -0.504547 0.302310 -0.100318
v -0.511326 0.467879 1.835427
v -0.511323 0.467879 -0.100318
v -0.320372 0.508712 1.835427
v -0.320369 0.508712 -0.100318
v -0.189772 0.387790 1.835427
v -0.189769 0.387790 -0.100317
v -0.189769 0.387790 -0.100317
v -0.189772 0.387790 1.835427
v -0.320372 0.508712 1.835427
v -0.504550 0.302310 1.835427
v -0.511326 0.467879 1.835427
v -0.329738 0.265157 1.835427
v -0.189769 0.387790 -0.100317
v -0.329735 0.265157 -0.100318
v -0.320369 0.508712 -0.100318
v -0.504547 0.302310 -0.100318
v -0.511323 0.467879 -0.100318
v 0.120027 0.476867 1.835428
v 0.084576 0.620210 1.835428
v 0.084578 0.620210 -0.100317
v 0.219924 0.690361 1.835428
v 0.219927 0.690361 -0.100317
v 0.376673 0.655019 1.835428
v 0.376676 0.655019 -0.100317
v 0.412124 0.511676 1.835428
v 0.412127 0.511676 -0.100316
v 0.276776 0.441525 1.835428
v 0.276779 0.441525 -0.100317
v 0.120027 0.476867 1.835428
v 0.120030 0.476867 -0.100317
v 0.120030 0.476867 -0.100317
v 0.120027 0.476867 1.835428
v 0.276776 0.441525 1.835428
v 0.084576 0.620210 1.835428
v 0.412124 0.511676 1.835428
v 0.376673 0.655019 1.835428
v 0.219924 0.690361 1.835428
v 0.120030 0.476867 -0.100317
v 0.084578 0.620210 -0.100317
v 0.276779 0.441525 -0.100317
v 0.219927 0.690361 -0.100317
v 0.412127 0.511676 -0.100316
v 0.376676 0.655019 -0.100317
v 0.173180 0.387790 1.835428
v 0.354656 0.513763 1.835428
v 0.354659 0.513763 -0.100317
v 0.536132 0.387790 1.835428
v 0.536135 0.387790 -0.100316
v 0.354656 0.261817 1.835428
v 0.354659 0.261817 -0.100317
v 0.173180 0.387790 1.835428
v 0.173183 0.387790 -0.100317
v 0.173183 0.387790 -0.100317
v 0.173180 0.387790 1.835428
v 0.354656 0.261817 1.835428
v 0.536132 0.387790 1.835428
v 0.354656 0.513763 1.835428
v 0.173183 0.387790 -0.100317
v 0.354659 0.513763 -0.100317
v 0.354659 0.261817 -0.100317
v 0.536135 0.387790 -0.100316
v -0.483943 1.059647 4.251740
v -0.000006 1.395575 4.251741
v -0.483936 1.059647 -0.103686
v 0.483930 1.059647 4.251742
v 0.000000 1.395575 -0.103685
v -0.000006 0.723718 4.251741
v 0.483936 1.059647 -0.103684
v -0.483943 1.059647 4.251740
v -0.483936 1.059647 -0.103686
v 0.000000 0.723718 -0.103685
v -0.483943 1.059647 4.251740
v -0.000006 0.723718 4.251741
v -0.000006 1.395575 4.251741
v 0.483930 1.059647 4.251742
v -0.483936 1.059647 -0.103686
v 0.000000 1.395575 -0.103685
v 0.483936 1.059647 -0.103684
v 0.000000 0.723718 -0.103685
v 0.241965 0.898255 1.847566
v 0.241965 -0.109529 1.847566
v -0.241971 0.898255 1.847565
v -0.241971 -0.109529 1.847565
v -0.241971 0.898255 1.847565
v -0.241971 -0.109529 2.089533
v -0.241971 0.898255 2.089533
v -0.241971 -0.109529 1.847565
v -0.241971 0.898255 2.089533
v -0.241971 -0.109529 2.089533
v 0.241965 0.898255 2.089534
v 0.241965 -0.109529 2.089534
v 0.241965 0.898255 2.089534
v 0.241965 -0.109529 1.847566
v 0.241965 0.898255 1.847566
v 0.241965 -0.109529 2.089534
v -0.241971 0.898255 1.847565
v 0.241965 0.898255 2.089534
v 0.241965 0.898255 1.847566
v -0.241971 0.898255 2.089533
v 0.241965 -0.109529 1.847566
v -0.241971 -0.109529 2.089533
v -0.241971 -0.109529 1.847565
v 0.241965 -0.109529 2.089534
v 0.241965 0.005130 1.846586
v 0.241968 0.005130 -0.108987
v -0.241971 0.005130 1.846585
v -0.241968 0.005130 -0.108987
v -0.241971 0.005130 1.846585
v -0.241968 -0.162834 -0.108987
v -0.241971 -0.162834 1.846585
v -0.241968 0.005130 -0.108987
v -0.241971 -0.162834 1.846585
v -0.241968 -0.162834 -0.108987
v 0.241965 -0.162834 1.846586
v 0.241968 -0.162834 -0.108987
v 0.241965 -0.162834 1.846586
v 0.241968 0.005130 -0.108987
v 0.241965 0.005130 1.846586
v 0.241968 -0.162834 -0.108987
v -0.241971 0.005130 1.846585
v 0.241965 -0.162834 1.846586
v 0.241965 0.005130 1.846586
v -0.241971 -0.162834 1.846585
v 0.241968 0.005130 -0.108987
v -0.241968 -0.162834 -0.108987
v -0.241968 0.005130 -0.108987
v 0.241968 -0.162834 -0.108987
v 0.241967 -0.166108 0.753143
v 0.241967 -0.895046 0.750294
v -0.241969 -0.166108 0.753142
v -0.241969 -0.895046 0.750293
v -0.241969 -0.166108 0.753142
v -0.241970 -0.894716 0.992258
v -0.241970 -0.165779 0.995107
v -0.241969 -0.895046 0.750293
v -0.241970 -0.165779 0.995107
v -0.241970 -0.894716 0.992258
v 0.241967 -0.165779 0.995107
v 0.241967 -0.894716 0.992258
v 0.241967 -0.165779 0.995107
v 0.241967 -0.895046 0.750294
v 0.241967 -0.166108 0.753143
v 0.241967 -0.894716 0.992258
v -0.241969 -0.166108 0.753142
v 0.241967 -0.165779 0.995107
v 0.241967 -0.166108 0.753143
v -0.241970 -0.165779 0.995107
v 0.241967 -0.895046 0.750294
v -0.241970 -0.894716 0.992258
v -0.241969 -0.895046 0.750293
v 0.241967 -0.894716 0.992258
v 0.241967 -0.726962 0.753636
v 0.241969 -0.724984 -0.296466
v -0.241969 -0.726962 0.753636
v -0.241968 -0.724984 -0.296467
v -0.241969 -0.726962 0.753636
v -0.241968 -0.892946 -0.295992
v -0.241969 -0.894924 0.754110
v -0.241968 -0.724984 -0.296467
v -0.241969 -0.894924 0.754110
v -0.241968 -0.892946 -0.295992
v 0.241967 -0.894924 0.754111
v 0.241969 -0.892946 -0.295991
v 0.241967 -0.894924 0.754111
v 0.241969 -0.724984 -0.296466
v 0.241967 -0.726962 0.753636
v 0.241969 -0.892946 -0.295991
v -0.241969 -0.726962 0.753636
v 0.241967 -0.894924 0.754111
v 0.241967 -0.726962 0.753636
v -0.241969 -0.894924 0.754110
v 0.241969 -0.724984 -0.296466
v -0.241968 -0.892946 -0.295992
v -0.241968 -0.724984 -0.296467
v 0.241969 -0.892946 -0.295991
v 0.485595 1.394396 -1.117325
v 0.485594 1.394396 -0.096052
v 0.485595 -2.363273 -1.117325
v 0.485594 -2.363273 -0.096052
v 0.485594 1.394396 -0.096052
v -0.483157 1.394396 -0.096053
v 0.485594 -2.363273 -0.096052
v -0.483157 -2.363273 -0.096053
v -0.483157 1.394396 -0.096053
v -0.483155 1.394396 -1.117327
v -0.483157 -2.363273 -0.096053
v -0.483155 -2.363273 -1.117327
v -0.483155 1.394396 -1.117327
v 0.485595 1.394396 -1.117325
v -0.483155 -2.363273 -1.117327
v 0.485595 -2.363273 -1.117325
v 0.485594 1.394396 -0.096052
v 0.485595 1.394396 -1.117325
v -0.483155 1.394396 -1.117327
v -0.483157 1.394396 -0.096053
v 0.485595 -2.363273 -1.117325
v 0.485594 -2.363273 -0.096052
v -0.483157 -2.363273 -0.096053
v -0.483155 -2.363273 -1.117327
vt 0.242919 0.000000
vt 0.316923 0.000000
vt 0.316923 0.998535
vt 0.397099 0.000000
vt 0.397099 0.998535
vt 0.494052 0.000000
vt 0.494052 0.998535
vt 0.568056 0.000000
vt 0.568056 0.998535
vt 0.648231 0.000000
vt 0.648231 0.998535
vt 0.745184 0.000000
vt 0.745184 0.998535
vt 0.242919 0.998535
vt 0.241454 0.620727
vt 0.161208 0.734465
vt 0.192593 0.523720
vt 0.048862 0.717734
vt 0.000000 0.620727
vt 0.080246 0.506989
vt 0.241454 0.120727
vt 0.192593 0.217734
vt 0.161208 0.006989
vt 0.080246 0.234465
vt 0.048862 0.023720
vt 0.000000 0.120727
vt 0.340023 0.000000
vt 0.340023 0.998535
vt 0.419324 0.000000
vt 0.419324 0.998535
vt 0.591156 0.000000
vt 0.591156 0.998535
vt 0.670457 0.000000
vt 0.670457 0.998535
vt 0.191669 0.718412
vt 0.160993 0.506913
vt 0.080461 0.734542
vt 0.049785 0.523042
vt 0.160993 0.234542
vt 0.191669 0.023042
vt 0.049785 0.218412
vt 0.080461 0.006913
vt 0.271503 0.000000
vt 0.326986 0.000000
vt 0.326986 0.998535
vt 0.397094 0.000000
vt 0.397094 0.998535
vt 0.466478 0.000000
vt 0.466478 0.998535
vt 0.522685 0.000000
vt 0.522685 0.998535
vt 0.578167 0.000000
vt 0.578167 0.998535
vt 0.648275 0.000000
vt 0.648275 0.998535
vt 0.717660 0.000000
vt 0.717660 0.998535
vt 0.773866 0.000000
vt 0.773866 0.998535
vt 0.271503 0.998535
vt 0.135019 0.687449
vt 0.048190 0.665498
vt 0.000000 0.593725
vt 0.049179 0.521380
vt 0.135019 0.500000
vt 0.221848 0.521951
vt 0.270038 0.593725
vt 0.220860 0.666069
vt 0.135019 0.187449
vt 0.049179 0.166069
vt 0.000000 0.093725
vt 0.048190 0.021951
vt 0.135019 0.000000
vt 0.220860 0.021380
vt 0.270038 0.093725
vt 0.221848 0.165498
vt 0.368626 0.000000
vt 0.368626 0.998535
vt 0.481427 0.000000
vt 0.481427 0.998535
vt 0.566817 0.000000
vt 0.566817 0.998535
vt 0.676894 0.000000
vt 0.676894 0.998535
vt 0.007817 0.625152
vt 0.262307 0.624984
vt 0.065552 0.513357
vt 0.200124 0.511616
vt 0.007731 0.124984
vt 0.069914 0.011616
vt 0.204486 0.013357
vt 0.262222 0.125152
vt 0.377451 0.000000
vt 0.377451 0.998535
vt 0.462891 0.000000
vt 0.462891 0.998535
vt 0.672260 0.000000
vt 0.672260 0.998535
vt 0.172871 0.683691
vt 0.035842 0.530127
vt 0.030800 0.653311
vt 0.165903 0.502485
vt 0.165903 0.184965
vt 0.172871 0.003758
vt 0.035842 0.157323
vt 0.030800 0.034138
vt 0.120727 0.741454
vt 0.023042 0.691669
vt 0.234542 0.660993
vt 0.006913 0.580461
vt 0.120727 0.500000
vt 0.218412 0.549785
vt 0.120727 0.241454
vt 0.006913 0.160993
vt 0.218412 0.191669
vt 0.023042 0.049785
vt 0.234542 0.080461
vt 0.120727 0.000000
vt 0.420351 0.000000
vt 0.569200 0.000000
vt 0.420351 0.998535
vt 0.718048 0.000000
vt 0.569200 0.998535
vt 0.866896 0.000000
vt 0.866896 0.998535
vt 0.718048 0.998535
vt 0.750000 0.000000
vt 0.750000 0.517568
vt 0.998535 0.000000
vt 0.998535 0.517568
vt 0.375000 0.000000
vt 0.498535 0.514518
vt 0.498535 0.000000
vt 0.375000 0.514518
vt 0.500000 0.000000
vt 0.500000 0.517568
vt 0.748535 0.000000
vt 0.748535 0.517568
vt 0.250000 0.000000
vt 0.373535 0.514518
vt 0.373535 0.000000
vt 0.250000 0.514518
vt 0.125000 0.247070
vt 0.248535 0.000000
vt 0.125000 0.000000
vt 0.248535 0.247070
vt 0.123535 0.000000
vt 0.000000 0.247070
vt 0.123535 0.247070
vt 0.000000 0.000000
vt 0.704868 0.000000
vt 0.704868 0.998535
vt 0.951971 0.000000
vt 0.951971 0.998535
vt 0.307302 0.000000
vt 0.393066 0.998535
vt 0.393066 0.000000
vt 0.307302 0.998535
vt 0.409736 0.000000
vt 0.409736 0.998535
vt 0.656839 0.000000
vt 0.656839 0.998535
vt 0.204868 0.000000
vt 0.290632 0.998535
vt 0.290632 0.000000
vt 0.204868 0.998535
vt 0.102434 0.290911
vt 0.203403 0.000000
vt 0.102434 0.000000
vt 0.203403 0.290911
vt 0.100969 0.000000
vt 0.000000 0.290911
vt 0.100969 0.290911
vt 0.998535 0.500000
vt 0.500000 0.500000
vt 0.998535 0.830971
vt 0.500000 0.830971
vt 0.498535 0.750000
vt 0.000000 0.915484
vt 0.498535 0.915484
vt 0.000000 0.750000
vt 0.998535 0.330971
vt 0.500000 0.330971
vt 0.498535 0.500000
vt 0.000000 0.665484
vt 0.498535 0.665484
vt 0.000000 0.500000
vt 0.497077 0.248535
vt 0.497077 0.000000
vt 0.000000 0.248535
vt 0.000000 0.250000
vt 0.497077 0.498535
vt 0.497077 0.250000
vt 0.000000 0.498535
vt 0.704867 0.000000
vt 0.704867 0.637237
vt 0.998535 0.637237
vt 0.307300 0.000000
vt 0.408269 0.631258
vt 0.408269 0.000000
vt 0.307300 0.631258
vt 0.409734 0.000000
vt 0.409734 0.637237
vt 0.703402 0.000000
vt 0.703402 0.637237
vt 0.204867 0.000000
vt 0.305836 0.631258
vt 0.305836 0.000000
vt 0.204867 0.631258
vt 0.102433 0.290913
vt 0.203402 0.000000
vt 0.102433 0.000000
vt 0.203402 0.290913
vt 0.000000 0.290913
vt 0.100969 0.290913
vt 0.204201 0.000000
vt 0.406937 0.000000
vt 0.204201 0.745945
vt 0.406937 0.745945
vt 0.806301 0.000000
vt 0.806301 0.745653
vt 0.998535 0.745653
vt 0.202736 0.000000
vt 0.000000 0.745945
vt 0.202736 0.745945
vt 0.612602 0.000000
vt 0.804836 0.000000
vt 0.612602 0.745653
vt 0.804836 0.745653
vt 0.408401 0.500000
vt 0.611137 0.500000
vt 0.611137 0.692309
vt 0.408401 0.692309
vt 0.408401 0.000000
vt 0.611137 0.000000
vt 0.611137 0.192309
vt 0.408401 0.192309
vn -0.223328 0.974743 -0.000000
vn 0.457293 0.889316 0.000001
vn 0.970433 -0.241370 0.000001
vn 0.223328 -0.974743 0.000000
vn -0.457293 -0.889316 -0.000001
vn -0.970433 0.241370 -0.000001
vn -0.000001 -0.000000 1.000000
vn -0.000002 0.000000 1.000000
vn -0.000001 -0.000001 1.000000
vn 0.000002 -0.000000 -1.000000
vn 0.970752 0.240086 0.000001
vn 0.460166 -0.887833 0.000001
vn -0.219946 -0.975512 -0.000000
vn -0.970752 -0.240085 -0.000001
vn -0.460166 0.887833 -0.000001
vn 0.219946 0.975512 0.000000
vn 0.000001 0.000000 -1.000000
vn -0.241686 -0.970355 -0.000000
vn -0.827009 -0.562189 -0.000001
vn -0.830226 0.557427 -0.000001
vn -0.245096 0.969499 -0.000000
vn 0.241685 0.970355 0.000000
vn 0.827009 0.562189 0.000001
vn 0.830226 -0.557427 0.000001
vn 0.245097 -0.969499 0.000000
vn -0.000001 0.000001 1.000000
vn -0.000002 0.000002 1.000000
vn -0.000002 -0.000002 1.000000
vn 0.440549 0.897729 0.000001
vn 0.876769 -0.480912 0.000001
vn -0.012936 -0.999916 -0.000000
vn -0.888508 -0.458861 -0.000001
vn -0.439835 0.898078 -0.000001
vn 0.659000 -0.752143 0.000001
vn -0.207887 -0.978153 -0.000000
vn -0.999164 -0.040893 -0.000002
vn -0.209105 0.977893 -0.000000
vn 0.679394 0.733773 0.000001
vn -0.000002 0.000001 1.000000
vn -0.460165 0.887833 -0.000001
vn 0.970752 0.240085 0.000001
vn 0.460165 -0.887833 0.000001
vn -0.570237 0.821480 -0.000001
vn 0.570237 0.821480 0.000001
vn 0.570237 -0.821480 0.000001
vn -0.570237 -0.821480 -0.000001
vn -1.000000 -0.000000 -0.000002
vn 1.000000 0.000000 0.000002
vn 0.000000 1.000000 0.000000
vn 0.000000 -1.000000 0.000000
vn 0.000001 0.003908 -0.999992
vn -1.000000 0.000000 -0.000001
vn -0.000001 -0.003908 0.999992
vn 1.000000 0.000000 0.000001
vn 0.000000 0.999999 -0.001362
vn -0.000000 -0.999999 0.001362
vn -0.000000 0.999998 0.001883
vn 0.000000 -0.999998 -0.001883
vn -0.000001 0.002827 0.999996
vn 0.000001 -0.002827 -0.999996
usemtl None
s off
f 1/1/1 2/2/1 3/3/1
f 2/2/2 4/4/2 5/5/2
f 4/4/3 6/6/3 7/7/3
f 6/6/4 8/8/4 9/9/4
f 8/8/5 10/10/5 11/11/5
f 10/10/6 12/12/6 13/13/6
f 13/13/6 11/11/6 10/10/6
f 11/11/5 9/9/5 8/8/5
f 9/9/4 7/7/4 6/6/4
f 7/7/3 5/5/3 4/4/3
f 5/5/2 3/3/2 2/2/2
f 14/14/1 1/1/1 3/3/1
f 15/15/7 16/16/7 17/17/7
f 16/16/8 18/18/8 19/19/8
f 19/19/8 20/20/8 16/16/8
f 20/20/9 17/17/9 16/16/9
f 21/21/10 22/22/10 23/23/10
f 22/22/10 24/24/10 25/25/10
f 24/24/10 26/26/10 25/25/10
f 25/25/10 23/23/10 22/22/10
f 27/1/11 28/27/11 29/28/11
f 28/27/12 30/29/12 31/30/12
f 30/29/13 32/6/13 33/7/13
f 32/6/14 34/31/14 35/32/14
f 34/31/15 36/33/15 37/34/15
f 36/33/16 38/12/16 39/13/16
f 39/13/16 37/34/16 36/33/16
f 37/34/15 35/32/15 34/31/15
f 35/32/14 33/7/14 32/6/14
f 33/7/13 31/30/13 30/29/13
f 31/30/12 29/28/12 28/27/12
f 29/28/11 40/14/11 27/1/11
f 41/15/7 42/35/7 43/36/7
f 42/35/7 44/37/7 45/19/7
f 45/19/8 46/38/8 43/36/8
f 43/36/8 42/35/8 45/19/8
f 47/21/10 48/39/10 49/40/10
f 48/39/10 50/41/10 51/26/10
f 51/26/17 52/42/17 49/40/17
f 49/40/10 48/39/10 51/26/10
f 53/1/4 54/2/4 55/3/4
f 54/2/5 56/4/5 57/5/5
f 56/4/6 58/6/6 59/7/6
f 58/6/1 60/8/1 61/9/1
f 60/8/2 62/10/2 63/11/2
f 62/10/3 64/12/3 65/13/3
f 65/13/3 63/11/3 62/10/3
f 63/11/2 61/9/2 60/8/2
f 61/9/1 59/7/1 58/6/1
f 59/7/6 57/5/6 56/4/6
f 57/5/5 55/3/5 54/2/5
f 55/3/4 66/14/4 53/1/4
f 67/15/8 68/16/8 69/19/8
f 68/16/8 70/18/8 69/19/8
f 69/19/7 71/20/7 72/17/7
f 72/17/8 67/15/8 69/19/8
f 73/21/17 74/22/17 75/23/17
f 74/22/10 76/24/10 75/23/10
f 76/24/10 77/26/10 75/23/10
f 77/26/17 78/25/17 75/23/17
f 79/43/18 80/44/18 81/45/18
f 80/44/19 82/46/19 83/47/19
f 82/46/20 84/48/20 85/49/20
f 84/48/21 86/50/21 87/51/21
f 86/50/22 88/52/22 89/53/22
f 88/52/23 90/54/23 91/55/23
f 90/54/24 92/56/24 93/57/24
f 92/56/25 94/58/25 95/59/25
f 95/59/25 93/57/25 92/56/25
f 93/57/24 91/55/24 90/54/24
f 91/55/23 89/53/23 88/52/23
f 89/53/22 87/51/22 86/50/22
f 87/51/21 85/49/21 84/48/21
f 85/49/20 83/47/20 82/46/20
f 83/47/19 81/45/19 80/44/19
f 81/45/18 96/60/18 79/43/18
f 97/61/9 98/62/9 99/63/9
f 99/63/26 100/64/26 101/65/26
f 101/65/27 102/66/27 103/67/27
f 103/67/28 104/68/28 97/61/28
f 97/61/7 99/63/7 103/67/7
f 99/63/7 101/65/7 103/67/7
f 105/69/17 106/70/17 107/71/17
f 107/71/10 108/72/10 105/69/10
f 108/72/17 109/73/17 105/69/17
f 109/73/10 110/74/10 105/69/10
f 110/74/10 111/75/10 105/69/10
f 111/75/10 112/76/10 105/69/10
f 113/43/29 114/77/29 115/78/29
f 114/77/30 116/79/30 117/80/30
f 116/79/31 118/81/31 119/82/31
f 118/81/32 120/83/32 121/84/32
f 120/83/33 122/58/33 123/59/33
f 123/59/33 121/84/33 120/83/33
f 121/84/32 119/82/32 118/81/32
f 119/82/31 117/80/31 116/79/31
f 117/80/30 115/78/30 114/77/30
f 115/78/29 124/60/29 113/43/29
f 125/61/7 126/85/7 127/86/7
f 126/85/7 128/87/7 129/88/7
f 129/88/7 127/86/7 126/85/7
f 130/69/10 131/89/10 132/90/10
f 132/90/10 133/91/10 130/69/10
f 133/91/10 134/92/10 130/69/10
f 135/43/34 136/93/34 137/94/34
f 136/93/35 138/95/35 139/96/35
f 138/95/36 140/52/36 141/53/36
f 140/52/37 142/97/37 143/98/37
f 142/97/38 144/58/38 145/59/38
f 145/59/38 143/98/38 142/97/38
f 143/98/37 141/53/37 140/52/37
f 141/53/36 139/96/36 138/95/36
f 139/96/35 137/94/35 136/93/35
f 137/94/34 146/60/34 135/43/34
f 147/67/8 148/99/8 149/100/8
f 148/99/39 150/101/39 149/100/39
f 149/100/7 151/102/7 147/67/7
f 152/75/17 153/103/17 154/104/17
f 153/103/10 155/105/10 156/106/10
f 156/106/10 154/104/10 153/103/10
f 157/1/14 158/27/14 159/28/14
f 158/27/40 160/29/40 161/30/40
f 160/29/16 162/6/16 163/7/16
f 162/6/41 164/31/41 165/32/41
f 164/31/42 166/33/42 167/34/42
f 166/33/13 168/12/13 169/13/13
f 169/13/13 167/34/13 166/33/13
f 167/34/42 165/32/42 164/31/42
f 165/32/41 163/7/41 162/6/41
f 163/7/16 161/30/16 160/29/16
f 161/30/40 159/28/40 158/27/40
f 159/28/14 170/14/14 157/1/14
f 171/107/7 172/108/7 173/109/7
f 172/108/26 174/110/26 173/109/26
f 174/110/8 175/111/8 176/112/8
f 176/112/8 173/109/8 174/110/8
f 177/113/10 178/114/10 179/115/10
f 178/114/10 180/116/10 181/117/10
f 180/116/10 182/118/10 181/117/10
f 181/117/10 179/115/10 178/114/10
f 183/43/43 184/46/43 185/47/43
f 184/46/44 186/50/44 187/51/44
f 186/50/45 188/54/45 189/55/45
f 188/54/46 190/58/46 191/59/46
f 191/59/46 189/55/46 188/54/46
f 189/55/45 187/51/45 186/50/45
f 187/51/44 185/47/44 184/46/44
f 185/47/43 192/60/43 183/43/43
f 193/67/8 194/61/8 195/63/8
f 195/63/8 196/65/8 193/67/8
f 197/75/10 198/69/10 199/73/10
f 198/69/10 200/71/10 199/73/10
f 201/43/43 202/119/43 203/60/43
f 202/119/44 204/120/44 205/121/44
f 204/120/45 206/122/45 207/123/45
f 206/122/46 208/124/46 209/125/46
f 209/125/46 210/126/46 206/122/46
f 210/126/45 207/123/45 206/122/45
f 207/123/44 205/121/44 204/120/44
f 205/121/43 203/60/43 202/119/43
f 211/67/8 212/61/8 213/65/8
f 212/61/8 214/63/8 213/65/8
f 215/75/10 216/69/10 217/71/10
f 217/71/10 218/73/10 215/75/10
f 219/127/17 220/128/17 221/129/17
f 222/130/17 221/129/17 220/128/17
f 223/131/47 224/132/47 225/133/47
f 224/132/47 223/131/47 226/134/47
f 227/135/8 228/136/8 229/137/8
f 230/138/8 229/137/8 228/136/8
f 231/139/48 232/140/48 233/141/48
f 232/140/48 231/139/48 234/142/48
f 235/143/49 236/144/49 237/145/49
f 238/146/49 236/144/49 235/143/49
f 239/147/50 240/148/50 241/149/50
f 240/148/50 239/147/50 242/150/50
f 243/151/49 244/152/49 245/153/49
f 246/154/49 245/153/49 244/152/49
f 247/155/47 248/156/47 249/157/47
f 248/156/47 247/155/47 250/158/47
f 251/159/50 252/160/50 253/161/50
f 254/162/50 253/161/50 252/160/50
f 255/163/48 256/164/48 257/165/48
f 256/164/48 255/163/48 258/166/48
f 259/167/7 260/168/7 261/169/7
f 262/170/7 260/168/7 259/167/7
f 263/171/10 264/172/10 265/173/10
f 264/172/10 263/171/10 266/150/10
f 267/174/51 268/175/51 269/176/51
f 270/177/51 269/176/51 268/175/51
f 271/178/52 272/179/52 273/180/52
f 272/179/47 271/178/47 274/181/47
f 275/129/53 276/135/53 277/182/53
f 278/183/53 277/182/53 276/135/53
f 279/184/54 280/185/54 281/186/54
f 280/185/48 279/184/48 282/187/48
f 283/150/55 284/188/55 285/189/55
f 286/190/55 284/188/55 283/150/55
f 287/191/56 288/192/56 289/193/56
f 288/192/56 287/191/56 290/194/56
f 291/195/57 292/196/57 293/129/57
f 294/197/57 293/129/57 292/196/57
f 295/198/47 296/199/47 297/200/47
f 296/199/47 295/198/47 298/201/47
f 299/202/58 300/203/58 301/204/58
f 302/205/58 301/204/58 300/203/58
f 303/206/48 304/207/48 305/208/48
f 304/207/48 303/206/48 306/209/48
f 307/210/59 308/211/59 309/212/59
f 310/213/59 308/211/59 307/210/59
f 311/171/60 312/214/60 313/215/60
f 312/214/60 311/171/60 314/150/60
f 315/216/48 316/217/48 317/218/48
f 318/219/48 317/218/48 316/217/48
f 319/220/8 320/129/8 321/221/8
f 322/222/8 321/221/8 320/129/8
f 323/150/47 324/223/47 325/224/47
f 326/225/47 325/224/47 324/223/47
f 327/226/17 328/227/17 329/228/17
f 330/229/17 329/228/17 328/227/17
f 331/230/49 332/231/49 333/232/49
f 334/233/49 331/230/49 333/232/49
f 335/234/50 336/235/50 337/236/50
f 337/236/50 338/237/50 335/234/50
