# Blender v2.65 (sub 0) OBJ File: ''
# www.blender.org
mtllib stairs.mtl
o stairs.001
v 2.509135 1.867557 0.000000
v -2.509135 1.867557 0.000000
v -2.509135 1.867557 1.881852
v 2.509135 1.867557 1.881852
v 2.509135 -0.014295 -0.000000
v -2.509135 -0.014295 -0.000000
v -2.509135 1.867557 0.000000
v 2.509135 1.867557 0.000000
v -3.763703 -0.014295 -0.000000
v -2.509135 -0.014296 9.409258
v -3.763703 -0.014296 9.409258
v -2.509135 -0.014295 -0.000000
v -3.763703 -0.014296 9.409258
v -2.509135 9.394962 9.409259
v -3.763703 9.394962 9.409259
v -2.509135 -0.014296 9.409258
v -3.763703 9.394962 9.409259
v -2.509135 9.394964 0.000001
v -3.763703 9.394964 0.000001
v -2.509135 9.394962 9.409259
v -3.763703 9.394964 0.000001
v -2.509135 -0.014295 -0.000000
v -3.763703 -0.014295 -0.000000
v -2.509135 9.394964 0.000001
v -3.763703 -0.014296 9.409258
v -3.763703 9.394962 9.409259
v -3.763703 -0.014295 -0.000000
v -3.763703 9.394964 0.000001
v -2.509135 -0.014295 -0.000000
v -2.509135 9.394964 0.000001
v -2.509135 -0.014296 9.409258
v -2.509135 9.394962 9.409259
v 2.509135 -0.014295 -0.000000
v 3.763703 -0.014296 9.409258
v 2.509135 -0.014296 9.409258
v 3.763703 -0.014295 -0.000000
v 2.509135 -0.014296 9.409258
v 3.763703 9.394962 9.409259
v 2.509135 9.394962 9.409259
v 3.763703 -0.014296 9.409258
v 2.509135 9.394962 9.409259
v 3.763703 9.394964 0.000001
v 2.509135 9.394964 0.000001
v 3.763703 9.394962 9.409259
v 2.509135 9.394964 0.000001
v 3.763703 -0.014295 -0.000000
v 2.509135 -0.014295 -0.000000
v 3.763703 9.394964 0.000001
v 2.509135 -0.014296 9.409258
v 2.509135 9.394962 9.409259
v 2.509135 -0.014295 -0.000000
v 2.509135 9.394964 0.000001
v 3.763703 -0.014295 -0.000000
v 3.763703 9.394964 0.000001
v 3.763703 -0.014296 9.409258
v 3.763703 9.394962 9.409259
v 2.509135 7.513111 5.645556
v -2.509135 7.513111 5.645556
v -2.509135 7.513111 7.527408
v 2.509135 7.513111 7.527408
v 2.509135 3.749408 3.763704
v -2.509135 3.749408 3.763704
v -2.509135 5.631260 3.763704
v 2.509135 5.631260 3.763704
v 2.509135 5.631259 5.645555
v -2.509135 5.631259 5.645555
v -2.509135 7.513111 5.645556
v 2.509135 7.513111 5.645556
v 2.509135 7.513111 7.527408
v -2.509135 7.513111 7.527408
v -2.509135 9.394962 7.527408
v 2.509135 9.394962 7.527408
v 2.509135 9.394962 7.527408
v -2.509135 9.394962 7.527408
v -2.509135 9.394962 9.409259
v 2.509135 9.394962 9.409259
v 2.509135 3.749408 1.881852
v -2.509135 3.749408 1.881852
v -2.509135 3.749408 3.763704
v 2.509135 3.749408 3.763704
v 2.509135 1.867557 1.881852
v -2.509135 1.867557 1.881852
v -2.509135 3.749408 1.881852
v 2.509135 3.749408 1.881852
v 2.509135 5.631260 3.763704
v -2.509135 5.631260 3.763704
v -2.509135 5.631259 5.645555
v 2.509135 5.631259 5.645555
vt 1.000000 1.000000
vt 0.000000 1.000000
vt 0.000000 0.000000
vt 1.000000 0.000000
vt 0.172448 0.000000
vt 0.086957 0.641188
vt 0.172448 0.641188
vt 0.086957 0.000000
vt 0.085492 0.000000
vt 0.000000 0.641188
vt 0.085492 0.641188
vt 0.346361 0.000000
vt 0.260870 0.641188
vt 0.346361 0.641188
vt 0.260870 0.000000
vt 0.259405 0.000000
vt 0.173913 0.641188
vt 0.259405 0.641188
vt 0.173913 0.000000
vt 0.347826 0.998535
vt 0.846361 0.998535
vt 0.347826 0.500000
vt 0.846361 0.500000
vt 0.347826 0.000000
vt 0.347826 0.498535
vt 0.846361 0.000000
vt 0.846361 0.498535
vn 0.000000 1.000000 0.000000
vn 0.000000 0.000000 -1.000000
vn 0.000000 -1.000000 -0.000000
vn 0.000000 -0.000000 1.000000
vn -1.000000 -0.000000 0.000000
vn 1.000000 0.000000 0.000000
usemtl None
s off
f 1/1/1 2/2/1 3/3/1
f 1/1/1 3/3/1 4/4/1
f 5/1/2 6/2/2 7/3/2
f 5/1/2 7/3/2 8/4/2
f 9/5/3 10/6/3 11/7/3
f 10/6/3 9/5/3 12/8/3
f 13/9/4 14/10/4 15/11/4
f 14/10/4 13/9/4 16/3/4
f 17/12/1 18/13/1 19/14/1
f 18/13/1 17/12/1 20/15/1
f 21/16/2 22/17/2 23/18/2
f 22/17/2 21/16/2 24/19/2
f 25/20/5 26/21/5 27/22/5
f 28/23/5 27/22/5 26/21/5
f 29/24/6 30/25/6 31/26/6
f 31/26/6 30/25/6 32/27/6
f 33/5/3 34/6/3 35/7/3
f 34/6/3 33/5/3 36/8/3
f 37/9/4 38/10/4 39/11/4
f 38/10/4 37/9/4 40/3/4
f 41/12/1 42/13/1 43/14/1
f 42/13/1 41/12/1 44/15/1
f 45/16/2 46/17/2 47/18/2
f 46/17/2 45/16/2 48/19/2
f 49/20/5 50/21/5 51/22/5
f 52/23/5 51/22/5 50/21/5
f 53/24/6 54/25/6 55/26/6
f 55/26/6 54/25/6 56/27/6
f 57/1/1 58/2/1 59/3/1
f 57/1/1 59/3/1 60/4/1
f 61/1/2 62/2/2 63/3/2
f 61/1/2 63/3/2 64/4/2
f 65/1/2 66/2/2 67/3/2
f 65/1/2 67/3/2 68/4/2
f 69/1/2 70/2/2 71/3/2
f 69/1/2 71/3/2 72/4/2
f 73/1/1 74/2/1 75/3/1
f 73/1/1 75/3/1 76/4/1
f 77/1/1 78/2/1 79/3/1
f 77/1/1 79/3/1 80/4/1
f 81/1/2 82/2/2 83/3/2
f 81/1/2 83/3/2 84/4/2
f 85/1/1 86/2/1 87/3/1
f 85/1/1 87/3/1 88/4/1
