# Blender v2.65 (sub 0) OBJ File: ''
# www.blender.org
mtllib sun.mtl
o sun
v 21.881166 -51.621578 -133.380219
v 0.167365 -56.067318 -133.380219
v 0.000000 0.000024 -144.685364
v 39.733524 -93.738510 -102.801712
v 0.303915 -101.811432 -102.801712
v 51.616020 -121.771461 -58.663044
v 0.394802 -132.258621 -58.663048
v 56.465488 -133.212234 -0.000022
v 0.431895 -144.684708 -0.000024
v 52.053493 -122.803551 56.067574
v 0.398148 -133.379623 56.067570
v 40.119804 -94.649841 101.811890
v 0.306869 -102.801254 101.811890
v 22.894068 -54.011242 132.259216
v 0.175113 -58.662785 132.259216
v 0.000000 -0.000024 144.685364
v 39.572273 -39.719120 -133.380203
v 0.000000 0.000024 -144.685364
v 71.858421 -72.125092 -102.801712
v 93.348007 -93.694450 -58.663040
v 102.118324 -102.497322 -0.000017
v 94.139183 -94.488586 56.067577
v 72.557007 -72.826309 101.811890
v 41.404118 -41.557808 132.259232
v 0.000000 -0.000024 144.685364
v 51.319920 -22.579626 -133.380203
v 0.000000 0.000024 -144.685364
v 93.190720 -41.001865 -102.801704
v 121.059830 -53.263672 -58.663033
v 132.433746 -58.267960 -0.000009
v 122.085884 -53.715134 56.067585
v 94.096695 -41.400509 101.811897
v 53.695580 -23.624905 132.259232
v 0.000000 -0.000024 144.685364
v 56.067341 0.167387 -133.380203
v 0.000000 0.000024 -144.685364
v 101.811447 0.303932 -102.801697
v 132.258636 0.394811 -58.663025
v 144.684708 0.431895 0.000000
v 133.379608 0.398139 56.067593
v 102.801239 0.306853 101.811905
v 58.662762 0.175091 132.259232
v 0.000000 -0.000024 144.685364
v 51.621601 21.881187 -133.380203
v 0.000000 0.000024 -144.685364
v 93.738525 39.733540 -102.801689
v 121.771469 51.616032 -58.663017
v 133.212234 56.465488 0.000009
v 122.803543 52.053486 56.067600
v 94.649826 40.119789 101.811913
v 54.011219 22.894047 132.259232
v 0.000000 -0.000024 144.685364
v 39.719143 39.572296 -133.380203
v 0.000000 0.000024 -144.685364
v 72.125107 71.858437 -102.801682
v 93.694458 93.348015 -58.663010
v 102.497322 102.118324 0.000017
v 94.488579 94.139175 56.067608
v 72.826294 72.556992 101.811920
v 41.557785 41.404095 132.259232
v 0.000000 -0.000024 144.685364
v 22.579647 51.319942 -133.380188
v 0.000000 0.000024 -144.685364
v 41.001881 93.190735 -102.801682
v 53.263683 121.059837 -58.663006
v 58.267960 132.433746 0.000022
v 53.715126 122.085876 56.067612
v 41.400494 94.096680 101.811920
v 23.624884 53.695557 132.259247
v 0.000000 -0.000024 144.685364
v -0.167365 56.067364 -133.380188
v 0.000000 0.000024 -144.685364
v -0.303915 101.811462 -102.801682
v -0.394802 132.258652 -58.663002
v -0.431895 144.684708 0.000024
v -0.398148 133.379593 56.067616
v -0.306869 102.801224 101.811920
v -0.175113 58.662739 132.259247
v 0.000000 -0.000024 144.685364
v -21.881166 51.621624 -133.380188
v 0.000000 0.000024 -144.685364
v -39.733524 93.738541 -102.801682
v -51.616020 121.771477 -58.663006
v -56.465488 133.212234 0.000022
v -52.053493 122.803535 56.067612
v -40.119804 94.649811 101.811920
v -22.894068 54.011196 132.259247
v 0.000000 -0.000024 144.685364
v -39.572273 39.719166 -133.380203
v 0.000000 0.000024 -144.685364
v -71.858421 72.125122 -102.801682
v -93.348007 93.694466 -58.663010
v -102.118324 102.497322 0.000017
v -94.139183 94.488571 56.067608
v -72.557007 72.826279 101.811920
v -41.404118 41.557762 132.259232
v 0.000000 -0.000024 144.685364
v -51.319920 22.579668 -133.380203
v 0.000000 0.000024 -144.685364
v -93.190720 41.001896 -102.801689
v -121.059830 53.263695 -58.663017
v -132.433746 58.267960 0.000009
v -122.085884 53.715118 56.067600
v -94.096695 41.400478 101.811913
v -53.695580 23.624863 132.259232
v 0.000000 -0.000024 144.685364
v -56.067341 -0.167343 -133.380203
v 0.000000 0.000024 -144.685364
v -101.811447 -0.303898 -102.801697
v -132.258636 -0.394792 -58.663025
v -144.684708 -0.431895 -0.000000
v -133.379608 -0.398157 56.067593
v -102.801239 -0.306886 101.811905
v -58.662762 -0.175134 132.259232
v 0.000000 -0.000024 144.685364
v -51.621601 -21.881145 -133.380203
v 0.000000 0.000024 -144.685364
v -93.738525 -39.733509 -102.801704
v -121.771469 -51.616009 -58.663033
v -133.212234 -56.465488 -0.000009
v -122.803543 -52.053501 56.067585
v -94.649826 -40.119820 101.811897
v -54.011219 -22.894089 132.259232
v 0.000000 -0.000024 144.685364
v -39.719143 -39.572250 -133.380203
v 0.000000 0.000024 -144.685364
v -72.125107 -71.858406 -102.801712
v -93.694458 -93.348000 -58.663040
v -102.497322 -102.118324 -0.000017
v -94.488579 -94.139191 56.067577
v -72.826294 -72.557022 101.811890
v -41.557785 -41.404140 132.259232
v 0.000000 -0.000024 144.685364
v -22.579647 -51.319897 -133.380219
v 0.000000 0.000024 -144.685364
v -41.001881 -93.190704 -102.801712
v -53.263683 -121.059822 -58.663044
v -58.267960 -132.433746 -0.000022
v -53.715126 -122.085892 56.067574
v -41.400494 -94.096710 101.811890
v -23.624884 -53.695602 132.259216
v 0.000000 -0.000024 144.685364
v 0.167365 -56.067318 -133.380219
v 0.000000 0.000024 -144.685364
v 0.303915 -101.811432 -102.801712
v 0.394802 -132.258621 -58.663048
v 0.431895 -144.684708 -0.000024
v 0.398148 -133.379623 56.067570
v 0.306869 -102.801254 101.811890
v 0.175113 -58.662785 132.259216
v 0.000000 -0.000024 144.685364
vt 0.063333 0.126666
vt 0.000000 0.126666
vt 0.000000 0.000000
vt 0.063333 0.248460
vt 0.000000 0.248460
vt 0.063333 0.367114
vt 0.000000 0.367114
vt 0.063333 0.500000
vt 0.000000 0.500000
vt 0.063333 0.626666
vt 0.000000 0.626666
vt 0.063333 0.748460
vt 0.000000 0.748460
vt 0.063333 0.867114
vt 0.000000 0.867114
vt 0.063333 1.000000
vt 0.124230 0.126666
vt 0.063333 0.000000
vt 0.124230 0.248460
vt 0.124230 0.367114
vt 0.124230 0.500000
vt 0.124230 0.626666
vt 0.124230 0.748460
vt 0.124230 0.867114
vt 0.124230 1.000000
vt 0.183557 0.126666
vt 0.124230 0.000000
vt 0.183557 0.248460
vt 0.183557 0.367114
vt 0.183557 0.500000
vt 0.183557 0.626666
vt 0.183557 0.748460
vt 0.183557 0.867114
vt 0.183557 1.000000
vt 0.250000 0.126666
vt 0.183557 0.000000
vt 0.250000 0.248460
vt 0.250000 0.367114
vt 0.250000 0.500000
vt 0.250000 0.626666
vt 0.250000 0.748460
vt 0.250000 0.867114
vt 0.250000 1.000000
vt 0.313333 0.126666
vt 0.250000 0.000000
vt 0.313333 0.248460
vt 0.313333 0.367114
vt 0.313333 0.500000
vt 0.313333 0.626666
vt 0.313333 0.748460
vt 0.313333 0.867114
vt 0.313333 1.000000
vt 0.374230 0.126666
vt 0.313333 0.000000
vt 0.374230 0.248460
vt 0.374230 0.367114
vt 0.374230 0.500000
vt 0.374230 0.626666
vt 0.374230 0.748460
vt 0.374230 0.867114
vt 0.374230 1.000000
vt 0.433557 0.126666
vt 0.374230 0.000000
vt 0.433557 0.248460
vt 0.433557 0.367114
vt 0.433557 0.500000
vt 0.433557 0.626666
vt 0.433557 0.748460
vt 0.433557 0.867114
vt 0.433557 1.000000
vt 0.500000 0.126666
vt 0.433557 0.000000
vt 0.500000 0.248460
vt 0.500000 0.367114
vt 0.500000 0.500000
vt 0.500000 0.626666
vt 0.500000 0.748460
vt 0.500000 0.867114
vt 0.500000 1.000000
vt 0.563333 0.126666
vt 0.500000 0.000000
vt 0.563333 0.248460
vt 0.563333 0.367114
vt 0.563333 0.500000
vt 0.563333 0.626666
vt 0.563333 0.748460
vt 0.563333 0.867114
vt 0.563333 1.000000
vt 0.624230 0.126666
vt 0.563333 0.000000
vt 0.624230 0.248460
vt 0.624230 0.367114
vt 0.624230 0.500000
vt 0.624230 0.626666
vt 0.624230 0.748460
vt 0.624230 0.867114
vt 0.624230 1.000000
vt 0.683557 0.126666
vt 0.624230 0.000000
vt 0.683557 0.248460
vt 0.683557 0.367114
vt 0.683557 0.500000
vt 0.683557 0.626666
vt 0.683557 0.748460
vt 0.683557 0.867114
vt 0.683557 1.000000
vt 0.750000 0.126666
vt 0.683557 0.000000
vt 0.750000 0.248460
vt 0.750000 0.367114
vt 0.750000 0.500000
vt 0.750000 0.626666
vt 0.750000 0.748460
vt 0.750000 0.867114
vt 0.750000 1.000000
vt 0.813333 0.126666
vt 0.750000 0.000000
vt 0.813333 0.248460
vt 0.813333 0.367114
vt 0.813333 0.500000
vt 0.813333 0.626666
vt 0.813333 0.748460
vt 0.813333 0.867114
vt 0.813333 1.000000
vt 0.874230 0.126666
vt 0.813333 0.000000
vt 0.874230 0.248460
vt 0.874230 0.367114
vt 0.874230 0.500000
vt 0.874230 0.626666
vt 0.874230 0.748460
vt 0.874230 0.867114
vt 0.874230 1.000000
vt 0.933557 0.126666
vt 0.874230 0.000000
vt 0.933557 0.248460
vt 0.933557 0.367114
vt 0.933557 0.500000
vt 0.933557 0.626666
vt 0.933557 0.748460
vt 0.933557 0.867114
vt 0.933557 1.000000
vt 1.000000 0.126666
vt 0.933557 0.000000
vt 1.000000 0.248460
vt 1.000000 0.367114
vt 1.000000 0.500000
vt 1.000000 0.626666
vt 1.000000 0.748460
vt 1.000000 0.867114
vt 1.000000 1.000000
vn 0.040412 -0.197380 -0.979494
vn 0.113006 -0.551944 -0.826189
vn 0.166159 -0.811551 -0.560157
vn 0.196393 -0.959217 -0.203307
vn 0.196775 -0.961083 0.193905
vn 0.167771 -0.819422 0.548088
vn 0.115432 -0.563792 0.817810
vn 0.042365 -0.206918 0.977441
vn 0.112303 -0.166920 -0.979554
vn 0.314170 -0.466963 -0.826585
vn 0.462198 -0.686983 -0.560738
vn 0.546522 -0.812318 -0.203602
vn 0.547588 -0.813903 0.194187
vn 0.466690 -0.693660 0.548668
vn 0.320920 -0.476998 0.818220
vn 0.117730 -0.174988 0.977506
vn 0.165794 -0.113638 -0.979591
vn 0.463933 -0.317986 -0.826832
vn 0.682763 -0.467975 -0.561100
vn 0.807535 -0.553496 -0.203786
vn 0.809114 -0.554578 0.194364
vn 0.689407 -0.472530 0.549029
vn 0.473908 -0.324824 0.818474
vn 0.173808 -0.119130 0.977547
vn 0.197608 -0.041242 -0.979413
vn 0.552271 -0.115262 -0.825658
vn 0.811428 -0.169349 -0.559380
vn 0.958543 -0.200053 -0.202913
vn 0.960401 -0.200441 0.193528
vn 0.819275 -0.170987 0.547314
vn 0.564111 -0.117733 0.817263
vn 0.207155 -0.043234 0.977352
vn 0.197380 0.040412 -0.979494
vn 0.551944 0.113007 -0.826189
vn 0.811552 0.166159 -0.560156
vn 0.959217 0.196393 -0.203306
vn 0.961083 0.196775 0.193905
vn 0.819422 0.167771 0.548088
vn 0.563792 0.115432 0.817810
vn 0.206918 0.042365 0.977441
vn 0.166920 0.112303 -0.979554
vn 0.466963 0.314170 -0.826585
vn 0.686983 0.462198 -0.560738
vn 0.812318 0.546522 -0.203602
vn 0.813903 0.547588 0.194188
vn 0.693660 0.466690 0.548668
vn 0.476997 0.320920 0.818220
vn 0.174988 0.117730 0.977506
vn 0.113637 0.165795 -0.979591
vn 0.317986 0.463934 -0.826832
vn 0.467975 0.682763 -0.561100
vn 0.553496 0.807535 -0.203786
vn 0.554578 0.809114 0.194364
vn 0.472530 0.689407 0.549030
vn 0.324824 0.473908 0.818475
vn 0.119131 0.173807 0.977547
vn 0.041242 0.197608 -0.979413
vn 0.115262 0.552271 -0.825658
vn 0.169349 0.811428 -0.559380
vn 0.200053 0.958543 -0.202913
vn 0.200441 0.960401 0.193529
vn 0.170987 0.819275 0.547314
vn 0.117733 0.564110 0.817263
vn 0.043234 0.207155 0.977352
vn -0.040412 0.197380 -0.979494
vn -0.113006 0.551944 -0.826188
vn -0.166159 0.811552 -0.560156
vn -0.196393 0.959217 -0.203306
vn -0.196775 0.961083 0.193905
vn -0.167771 0.819422 0.548088
vn -0.115432 0.563792 0.817810
vn -0.042365 0.206918 0.977441
vn -0.112302 0.166921 -0.979554
vn -0.314170 0.466964 -0.826585
vn -0.462198 0.686983 -0.560738
vn -0.546522 0.812318 -0.203601
vn -0.547588 0.813903 0.194188
vn -0.466690 0.693660 0.548668
vn -0.320921 0.476997 0.818220
vn -0.117731 0.174987 0.977507
vn -0.165794 0.113638 -0.979591
vn -0.463933 0.317987 -0.826831
vn -0.682763 0.467976 -0.561100
vn -0.807535 0.553496 -0.203786
vn -0.809114 0.554578 0.194364
vn -0.689407 0.472529 0.549030
vn -0.473908 0.324823 0.818475
vn -0.173808 0.119130 0.977547
vn -0.197607 0.041242 -0.979413
vn -0.552271 0.115262 -0.825658
vn -0.811428 0.169349 -0.559380
vn -0.958543 0.200053 -0.202913
vn -0.960401 0.200441 0.193528
vn -0.819275 0.170987 0.547314
vn -0.564110 0.117733 0.817263
vn -0.207155 0.043234 0.977352
vn -0.197380 -0.040412 -0.979494
vn -0.551944 -0.113006 -0.826189
vn -0.811551 -0.166159 -0.560156
vn -0.959217 -0.196393 -0.203307
vn -0.961083 -0.196775 0.193905
vn -0.819422 -0.167771 0.548088
vn -0.563792 -0.115432 0.817810
vn -0.206918 -0.042365 0.977441
vn -0.166920 -0.112303 -0.979554
vn -0.466963 -0.314170 -0.826585
vn -0.686983 -0.462198 -0.560738
vn -0.812318 -0.546522 -0.203602
vn -0.813903 -0.547588 0.194187
vn -0.693660 -0.466690 0.548668
vn -0.476997 -0.320921 0.818220
vn -0.174988 -0.117730 0.977507
vn -0.113638 -0.165794 -0.979591
vn -0.317986 -0.463933 -0.826832
vn -0.467975 -0.682763 -0.561100
vn -0.553496 -0.807535 -0.203786
vn -0.554578 -0.809114 0.194364
vn -0.472530 -0.689407 0.549029
vn -0.324823 -0.473909 0.818474
vn -0.119130 -0.173808 0.977547
vn -0.041242 -0.197607 -0.979413
vn -0.115262 -0.552271 -0.825658
vn -0.169349 -0.811428 -0.559380
vn -0.200053 -0.958543 -0.202913
vn -0.200441 -0.960401 0.193528
vn -0.170987 -0.819275 0.547313
vn -0.117733 -0.564111 0.817263
vn -0.043234 -0.207155 0.977352
usemtl None
s off
f 1/1/1 2/2/1 3/3/1
f 2/2/2 1/1/2 4/4/2
f 2/2/2 4/4/2 5/5/2
f 6/6/3 7/7/3 5/5/3
f 6/6/3 5/5/3 4/4/3
f 8/8/4 9/9/4 7/7/4
f 8/8/4 7/7/4 6/6/4
f 10/10/5 11/11/5 9/9/5
f 10/10/5 9/9/5 8/8/5
f 12/12/6 13/13/6 11/11/6
f 12/12/6 11/11/6 10/10/6
f 14/14/7 15/15/7 13/13/7
f 14/14/7 13/13/7 12/12/7
f 16/16/8 15/15/8 14/14/8
f 17/17/9 1/1/9 18/18/9
f 1/1/10 17/17/10 19/19/10
f 1/1/10 19/19/10 4/4/10
f 20/20/11 6/6/11 4/4/11
f 20/20/11 4/4/11 19/19/11
f 21/21/12 8/8/12 6/6/12
f 21/21/12 6/6/12 20/20/12
f 22/22/13 10/10/13 8/8/13
f 22/22/13 8/8/13 21/21/13
f 23/23/14 12/12/14 10/10/14
f 23/23/14 10/10/14 22/22/14
f 24/24/15 14/14/15 12/12/15
f 24/24/15 12/12/15 23/23/15
f 25/25/16 14/14/16 24/24/16
f 26/26/17 17/17/17 27/27/17
f 28/28/18 19/19/18 17/17/18
f 28/28/18 17/17/18 26/26/18
f 29/29/19 20/20/19 19/19/19
f 29/29/19 19/19/19 28/28/19
f 30/30/20 21/21/20 20/20/20
f 30/30/20 20/20/20 29/29/20
f 31/31/21 22/22/21 21/21/21
f 31/31/21 21/21/21 30/30/21
f 32/32/22 23/23/22 22/22/22
f 32/32/22 22/22/22 31/31/22
f 33/33/23 24/24/23 23/23/23
f 33/33/23 23/23/23 32/32/23
f 34/34/24 24/24/24 33/33/24
f 35/35/25 26/26/25 36/36/25
f 37/37/26 28/28/26 26/26/26
f 37/37/26 26/26/26 35/35/26
f 38/38/27 29/29/27 28/28/27
f 38/38/27 28/28/27 37/37/27
f 39/39/28 30/30/28 29/29/28
f 39/39/28 29/29/28 38/38/28
f 40/40/29 31/31/29 30/30/29
f 40/40/29 30/30/29 39/39/29
f 41/41/30 32/32/30 31/31/30
f 41/41/30 31/31/30 40/40/30
f 42/42/31 33/33/31 32/32/31
f 42/42/31 32/32/31 41/41/31
f 43/43/32 33/33/32 42/42/32
f 44/44/33 35/35/33 45/45/33
f 46/46/34 37/37/34 35/35/34
f 46/46/34 35/35/34 44/44/34
f 47/47/35 38/38/35 37/37/35
f 47/47/35 37/37/35 46/46/35
f 48/48/36 39/39/36 38/38/36
f 48/48/36 38/38/36 47/47/36
f 49/49/37 40/40/37 39/39/37
f 49/49/37 39/39/37 48/48/37
f 50/50/38 41/41/38 40/40/38
f 50/50/38 40/40/38 49/49/38
f 51/51/39 42/42/39 41/41/39
f 51/51/39 41/41/39 50/50/39
f 52/52/40 42/42/40 51/51/40
f 53/53/41 44/44/41 54/54/41
f 55/55/42 46/46/42 44/44/42
f 55/55/42 44/44/42 53/53/42
f 56/56/43 47/47/43 46/46/43
f 56/56/43 46/46/43 55/55/43
f 57/57/44 48/48/44 47/47/44
f 57/57/44 47/47/44 56/56/44
f 58/58/45 49/49/45 48/48/45
f 58/58/45 48/48/45 57/57/45
f 59/59/46 50/50/46 49/49/46
f 59/59/46 49/49/46 58/58/46
f 60/60/47 51/51/47 50/50/47
f 60/60/47 50/50/47 59/59/47
f 61/61/48 51/51/48 60/60/48
f 62/62/49 53/53/49 63/63/49
f 64/64/50 55/55/50 53/53/50
f 64/64/50 53/53/50 62/62/50
f 65/65/51 56/56/51 55/55/51
f 65/65/51 55/55/51 64/64/51
f 66/66/52 57/57/52 56/56/52
f 66/66/52 56/56/52 65/65/52
f 67/67/53 58/58/53 57/57/53
f 67/67/53 57/57/53 66/66/53
f 68/68/54 59/59/54 58/58/54
f 68/68/54 58/58/54 67/67/54
f 69/69/55 60/60/55 59/59/55
f 69/69/55 59/59/55 68/68/55
f 70/70/56 60/60/56 69/69/56
f 71/71/57 62/62/57 72/72/57
f 73/73/58 64/64/58 62/62/58
f 73/73/58 62/62/58 71/71/58
f 74/74/59 65/65/59 64/64/59
f 74/74/59 64/64/59 73/73/59
f 75/75/60 66/66/60 65/65/60
f 75/75/60 65/65/60 74/74/60
f 76/76/61 67/67/61 66/66/61
f 76/76/61 66/66/61 75/75/61
f 77/77/62 68/68/62 67/67/62
f 77/77/62 67/67/62 76/76/62
f 78/78/63 69/69/63 68/68/63
f 78/78/63 68/68/63 77/77/63
f 79/79/64 69/69/64 78/78/64
f 80/80/65 71/71/65 81/81/65
f 82/82/66 73/73/66 71/71/66
f 82/82/66 71/71/66 80/80/66
f 83/83/67 74/74/67 73/73/67
f 83/83/67 73/73/67 82/82/67
f 84/84/68 75/75/68 74/74/68
f 84/84/68 74/74/68 83/83/68
f 85/85/69 76/76/69 75/75/69
f 85/85/69 75/75/69 84/84/69
f 86/86/70 77/77/70 76/76/70
f 86/86/70 76/76/70 85/85/70
f 87/87/71 78/78/71 77/77/71
f 87/87/71 77/77/71 86/86/71
f 88/88/72 78/78/72 87/87/72
f 89/89/73 80/80/73 90/90/73
f 91/91/74 82/82/74 80/80/74
f 91/91/74 80/80/74 89/89/74
f 92/92/75 83/83/75 82/82/75
f 92/92/75 82/82/75 91/91/75
f 93/93/76 84/84/76 83/83/76
f 93/93/76 83/83/76 92/92/76
f 94/94/77 85/85/77 84/84/77
f 94/94/77 84/84/77 93/93/77
f 95/95/78 86/86/78 85/85/78
f 95/95/78 85/85/78 94/94/78
f 96/96/79 87/87/79 86/86/79
f 96/96/79 86/86/79 95/95/79
f 97/97/80 87/87/80 96/96/80
f 98/98/81 89/89/81 99/99/81
f 100/100/82 91/91/82 89/89/82
f 100/100/82 89/89/82 98/98/82
f 101/101/83 92/92/83 91/91/83
f 101/101/83 91/91/83 100/100/83
f 102/102/84 93/93/84 92/92/84
f 102/102/84 92/92/84 101/101/84
f 103/103/85 94/94/85 93/93/85
f 103/103/85 93/93/85 102/102/85
f 104/104/86 95/95/86 94/94/86
f 104/104/86 94/94/86 103/103/86
f 105/105/87 96/96/87 95/95/87
f 105/105/87 95/95/87 104/104/87
f 106/106/88 96/96/88 105/105/88
f 107/107/89 98/98/89 108/108/89
f 109/109/90 100/100/90 98/98/90
f 109/109/90 98/98/90 107/107/90
f 110/110/91 101/101/91 100/100/91
f 110/110/91 100/100/91 109/109/91
f 111/111/92 102/102/92 101/101/92
f 111/111/92 101/101/92 110/110/92
f 112/112/93 103/103/93 102/102/93
f 112/112/93 102/102/93 111/111/93
f 113/113/94 104/104/94 103/103/94
f 113/113/94 103/103/94 112/112/94
f 114/114/95 105/105/95 104/104/95
f 114/114/95 104/104/95 113/113/95
f 115/115/96 105/105/96 114/114/96
f 116/116/97 107/107/97 117/117/97
f 118/118/98 109/109/98 107/107/98
f 118/118/98 107/107/98 116/116/98
f 119/119/99 110/110/99 109/109/99
f 119/119/99 109/109/99 118/118/99
f 120/120/100 111/111/100 110/110/100
f 120/120/100 110/110/100 119/119/100
f 121/121/101 112/112/101 111/111/101
f 121/121/101 111/111/101 120/120/101
f 122/122/102 113/113/102 112/112/102
f 122/122/102 112/112/102 121/121/102
f 123/123/103 114/114/103 113/113/103
f 123/123/103 113/113/103 122/122/103
f 124/124/104 114/114/104 123/123/104
f 125/125/105 116/116/105 126/126/105
f 127/127/106 118/118/106 116/116/106
f 127/127/106 116/116/106 125/125/106
f 128/128/107 119/119/107 118/118/107
f 128/128/107 118/118/107 127/127/107
f 129/129/108 120/120/108 119/119/108
f 129/129/108 119/119/108 128/128/108
f 130/130/109 121/121/109 120/120/109
f 130/130/109 120/120/109 129/129/109
f 131/131/110 122/122/110 121/121/110
f 131/131/110 121/121/110 130/130/110
f 132/132/111 123/123/111 122/122/111
f 132/132/111 122/122/111 131/131/111
f 133/133/112 123/123/112 132/132/112
f 134/134/113 125/125/113 135/135/113
f 136/136/114 127/127/114 125/125/114
f 136/136/114 125/125/114 134/134/114
f 137/137/115 128/128/115 127/127/115
f 137/137/115 127/127/115 136/136/115
f 138/138/116 129/129/116 128/128/116
f 138/138/116 128/128/116 137/137/116
f 139/139/117 130/130/117 129/129/117
f 139/139/117 129/129/117 138/138/117
f 140/140/118 131/131/118 130/130/118
f 140/140/118 130/130/118 139/139/118
f 141/141/119 132/132/119 131/131/119
f 141/141/119 131/131/119 140/140/119
f 142/142/120 132/132/120 141/141/120
f 143/143/121 134/134/121 144/144/121
f 145/145/122 136/136/122 134/134/122
f 145/145/122 134/134/122 143/143/122
f 146/146/123 137/137/123 136/136/123
f 146/146/123 136/136/123 145/145/123
f 147/147/124 138/138/124 137/137/124
f 147/147/124 137/137/124 146/146/124
f 148/148/125 139/139/125 138/138/125
f 148/148/125 138/138/125 147/147/125
f 149/149/126 140/140/126 139/139/126
f 149/149/126 139/139/126 148/148/126
f 150/150/127 141/141/127 140/140/127
f 150/150/127 140/140/127 149/149/127
f 151/151/128 141/141/128 150/150/128
